<?xml version="1.0" encoding="UTF-8"?>
<!DOCTYPE svg PUBLIC "-//W3C//DTD SVG 1.1//EN" "http://www.w3.org/Graphics/SVG/1.1/DTD/svg11.dtd">
<svg version="1.1" xmlns="http://www.w3.org/2000/svg" xmlns:xlink="http://www.w3.org/1999/xlink" width="400" height="400"  xml:space="preserve" id="body2">
    <!-- Generated by PaintCode - http://www.paintcodeapp.com -->
    <path id="body2-bezier" stroke="none" fill="rgb(115, 94, 175)" d="M 72.53,140.5 L 73.7,140.72 74.46,140.86 76.31,141.16 77.03,141.27 77.08,141.29 77.35,141.37 77.64,141.45 81.53,142.44 81.89,142.54 82.06,142.58 82.28,142.66 83.69,143.15 85.01,143.59 85.84,143.88 87.21,144.44 87.8,144.69 89.37,145.3 90,145.65 90.54,145.95 91.7,146.46 92.14,146.7 94.89,148.22 96.25,148.98 97.07,149.5 97.21,149.58 98.41,150.42 98.67,150.58 99.93,151.42 100.33,151.73 100.55,151.91 100.84,152.1 102,152.98 102.09,153.05 102.63,153.46 102.77,153.57 104.94,155.52 106.25,156.7 106.37,156.8 106.41,156.84 106.4,156.74 106.4,156.73 106.35,156.21 106.29,155.52 106.25,155.06 106.13,153.05 106.07,151.94 106.04,151.35 106.02,150.58 105.95,147.34 105.95,146.72 105.96,146.53 105.98,145.65 106.1,141.54 106.13,140.72 106.14,140.29 106.16,140.06 106.17,139.89 106.66,135.79 106.69,135.55 106.93,133.18 107.13,131.18 107.13,131.17 107.13,131.15 107.15,131.03 107.18,130.86 107.18,130.85 107.3,130.14 107.82,127.29 107.95,126.56 108.08,125.92 108.25,125.13 108.82,122.46 108.89,122.16 108.9,122.12 108.9,122.12 109.09,121.39 109.2,120.99 110.07,117.73 110.11,117.58 110.14,117.51 110.36,116.83 110.62,116.05 110.64,116.01 111.86,112.36 112.28,111.12 112.8,109.54 113.27,108.38 114.25,106.19 115.54,103.34 116.38,101.26 116.56,100.8 116.76,100.41 116.79,100.35 118.67,96.78 118.94,96.32 119.34,95.63 120.18,94.22 121.72,91.61 121.85,91.39 122.95,89.53 123.29,88.96 123.86,88.18 124.21,87.7 125.09,86.46 126.65,84.27 126.82,84.03 128.2,82.23 128.73,81.53 129.93,79.95 130.29,79.51 130.85,78.89 131.58,78.05 132.87,76.59 133.86,75.46 134.53,74.73 135.48,73.72 135.75,73.45 136.51,72.67 137.51,71.66 137.69,71.47 138.72,70.59 141.09,68.46 141.44,68.13 142.98,66.73 143.92,65.87 144.46,65.42 145.21,64.79 146.37,63.89 148.02,62.6 149.12,61.79 149.72,61.36 150.63,60.75 151.3,60.28 152.45,59.46 153.06,59.08 154.89,57.95 156.23,57.07 156.55,56.86 157.09,56.5 157.93,56.07 159.47,55.27 161.16,54.24 163.07,53.09 163.36,52.93 163.65,52.79 165.52,51.93 166.09,51.66 167.48,51.02 170.79,49.52 171.02,49.42 171.6,49.16 171.61,49.15 172.36,48.88 174.79,48.03 175.95,47.62 176.91,47.28 177.67,47 179.36,46.36 180.03,46.1 180.15,46.07 180.22,46.04 180.88,45.85 181.24,45.75 182.82,45.04 183.08,44.93 183.47,44.78 183.71,44.68 184.02,44.53 184.1,44.49 184.59,44.21 185.19,43.92 185.55,43.71 185.82,43.58 186.37,43.3 186.85,42.95 187.69,42.29 187.87,42.15 188.01,42.06 188.36,41.85 188.78,41.49 189.23,41.09 189.24,41.08 189.68,40.67 190.75,39.69 190.8,39.64 191.2,39.26 191.31,39.17 191.89,38.49 192.24,38.1 192.51,37.77 193.07,37.13 193.3,36.87 193.69,36.24 193.77,36.14 193.98,35.79 194.11,35.57 194.18,35.47 194.25,35.38 194.26,35.36 194.34,35.24 194.52,34.9 194.86,34.39 195.68,32.82 196,32.2 196.79,30.68 196.92,30.45 196.95,30.37 196.97,30.34 197.06,30.18 197.37,29.44 197.9,28.23 198.32,27.27 198.59,26.66 198.64,26.55 198.91,25.89 199.18,25.08 199.99,22.33 200.36,21.07 200.61,20.24 200.79,19.63 200.89,19.29 200.98,18.93 201.02,18.64 201.07,18.35 201.27,17.4 201.38,16.89 201.56,16.09 201.66,15.62 201.87,14.6 202,13.45 202.06,12.47 202.12,11.26 202.14,11.11 202.19,10 202.21,9.71 202.3,7.94 202.31,7.85 202.32,7.61 202.32,7.53 202.31,6.21 202.3,5.23 202.3,5.07 202.29,4.99 202.19,2.76 202.19,2.74 202.48,2.72 202.9,2.69 204.07,2.6 205.54,2.5 205.97,2.47 210.14,2.2 210.71,2.16 210.78,2.16 215.4,2.03 216.09,2.01 216.23,2 216.29,2 216.9,2.03 220.33,2.19 224.13,2.36 224.31,2.37 225.26,2.43 227.25,2.54 227.82,2.6 229.85,2.81 232.73,3.19 234.26,3.45 235.12,3.58 236.09,3.73 238.17,4.06 240.05,4.4 242.99,4.94 243.15,4.97 243.59,5.07 244.79,5.35 244.98,5.4 245.44,5.52 248.95,6.41 249.91,6.69 252.85,7.53 254.19,7.92 254.27,7.95 254.84,8.14 259.15,9.65 259.77,9.88 260.28,10.06 264.58,11.82 264.7,11.87 266.12,12.47 268.79,13.59 269.66,13.96 271,14.62 274.56,16.43 274.59,16.44 276.21,17.4 279.12,19.13 279.49,19.34 282.01,20.78 284.15,21.96 284.42,22.13 284.73,22.33 286.56,23.53 287.85,24.4 288.76,24.99 289.17,25.28 289.35,25.42 291.87,27.27 292.39,27.65 294.09,29.06 294.28,29.2 296.58,30.95 296.85,31.15 297.08,31.31 297.1,31.32 298.21,32 298.52,32.2 298.88,32.44 299.21,32.66 300.11,33.27 300.41,33.47 302.4,34.77 302.61,34.93 302.9,35.15 304.14,36.13 304.76,36.62 305.41,37.13 305.69,37.36 305.73,37.39 305.74,37.4 305.78,37.44 308.66,40.04 308.98,40.34 309.07,40.45 310.48,41.94 310.59,42.06 311.78,43.3 311.95,43.52 312.12,43.72 312.48,44.19 313.59,45.45 313.98,45.89 314,45.93 314.59,46.67 314.85,47 315.3,47.58 315.34,47.62 315.6,47.97 315.64,48.02 317.08,50.16 317.36,50.58 318.21,51.87 318.26,51.93 318.34,52.06 318.46,52.28 318.94,53.12 319.7,54.44 319.93,54.82 320.79,56.46 321,56.86 321.04,56.95 321.77,58.64 322.37,59.97 323.13,61.79 323.16,61.85 323.78,63.43 323.87,63.69 324.08,64.32 324.25,64.8 324.84,66.73 324.88,66.84 324.99,67.71 325.3,69.46 325.66,70.8 326.04,71.66 326.06,71.71 326.13,71.97 326.2,72.35 326.41,74.13 326.47,74.59 326.82,76.47 326.82,76.59 326.84,76.93 327,78.89 327.04,79.06 327.05,79.12 327.13,79.83 327.22,81.11 327.21,81.49 327.21,81.53 327.2,81.86 327.23,82.46 327.22,82.96 327.23,83.27 327.29,84.62 327.28,84.98 327.28,85.1 327.24,85.69 327.22,86 327.19,86.46 327.07,88.55 326.91,90.37 326.78,91.03 326.75,91.39 326.66,92.29 326.58,92.99 326.32,94 326.3,94.09 326.05,95.37 325.82,96.32 325.53,97.57 324.84,100.71 324.68,101.26 324.18,102.97 324.14,103.04 324.1,103.11 324.03,103.41 323.92,103.75 323.87,103.9 323.18,105.72 322.97,106.19 322.71,106.77 322.1,108.13 321.74,108.74 321.46,109.53 321.19,110.31 321.08,110.56 320.75,111.12 320.46,111.61 319.78,112.86 319.11,114.07 319.06,114.18 318.94,114.47 318.93,114.49 318.46,115.24 317.95,116.05 317.84,116.24 317.53,116.76 317.29,117.12 316.55,118.23 316.36,118.52 316.27,118.66 315.63,119.6 315.54,119.71 314.53,120.99 314.26,121.34 314,121.62 313.87,121.77 313.42,122.37 312.3,123.65 312.28,123.68 312.19,123.77 310.2,125.92 309.33,126.85 309.07,127.11 308.89,127.29 308.67,127.53 308.41,127.78 308.08,128.1 306.72,129.31 305.21,130.54 304.81,130.85 304.14,131.39 302.94,132.36 302.61,132.63 301.86,133.09 301.53,133.32 301.22,133.53 300.41,134.08 299.62,134.56 299.21,134.81 297.87,135.68 297.73,135.79 297.47,135.98 297.24,136.13 297.02,136.26 294.83,137.63 294.63,137.86 294.33,138.11 294.28,138.16 294.19,138.25 294.04,138.39 293.78,138.71 293.47,139.12 293.3,139.53 293.15,139.73 293,140.03 292.99,140.08 292.88,140.51 292.88,140.52 292.84,140.59 292.77,140.72 292.77,140.73 292.68,140.89 292.54,141.12 292.54,141.14 292.5,141.46 292.46,141.72 292.41,142.09 292.4,142.39 292.4,142.56 292.46,143.1 292.47,143.18 292.5,143.5 292.51,143.59 292.57,143.78 292.94,145.39 293.01,145.61 293.04,145.65 293.14,145.84 293.31,146.11 293.7,146.7 293.75,146.78 293.79,146.88 293.89,146.97 294.01,147.14 294.28,147.5 294.33,147.57 294.35,147.6 294.78,147.92 294.79,147.93 294.95,148.05 294.97,148.07 295.03,148.12 295.53,148.51 295.58,148.55 295.59,148.56 295.78,148.69 298.58,150.58 299.21,151.01 300.24,151.71 302.98,153.71 304.14,154.59 304.77,155.07 305.37,155.52 305.68,155.76 306.27,156.23 306.91,156.75 307.72,157.43 309,158.64 309.07,158.7 309.89,159.42 311.07,160.45 311.14,160.51 311.94,161.21 313.2,162.41 313.22,162.43 314,163.21 314.47,163.68 315.19,164.46 316.08,165.38 316.34,165.65 317.95,167.38 318.61,168.16 318.94,168.52 319.35,168.98 319.99,169.76 320.44,170.31 322.15,172.41 323.44,174 323.87,174.58 324.35,175.25 325.52,176.86 326.13,177.71 327.05,179 327.53,179.67 327.84,180.18 328,180.43 328.54,181.29 328.8,181.74 329.26,182.55 329.81,183.48 330.78,185.11 331.54,186.4 332.14,187.37 333.56,190.05 333.72,190.34 333.73,190.36 334.23,191.34 335.44,194.02 335.88,194.98 336.08,195.43 336.16,195.62 337.86,199.91 338.66,201.91 339.17,203.2 339.31,203.55 339.38,203.74 339.39,203.77 339.49,204.07 339.73,204.84 340.75,208.05 340.88,208.54 341.2,209.78 341.49,210.91 341.85,212.79 342.36,214.71 342.88,216.67 342.9,216.76 343.47,219.64 343.59,220.26 343.61,220.38 343.77,221.17 343.87,222.02 344.15,224.57 344.47,227.58 344.57,229.51 344.71,231.99 344.89,232.72 345.03,234.44 345.04,234.57 345.08,236.55 345.09,237.16 345.12,239.06 345.07,239.37 344.98,239.95 344.87,242.88 344.85,243.54 344.82,244.31 344.75,246.74 344.65,248.02 344.53,249.03 344.5,249.24 344.06,252.47 343.74,254.16 343.74,254.17 343.59,255.2 343.04,258.86 342.99,259.1 342.72,260.48 342.22,262.93 342.21,262.95 342.15,263.34 342.06,263.95 342.05,264.04 341.99,264.43 341.96,264.67 341.95,265.66 341.94,265.79 341.94,265.88 341.93,266.03 341.91,266.5 341.89,266.95 341.89,267.08 341.9,267.75 341.91,268.09 341.96,268.97 341.96,269.01 342.01,269.37 342.16,270.43 342.16,270.45 342.19,270.85 342.23,271.1 342.29,271.44 342.47,272.59 342.59,273.27 342.7,273.71 342.74,273.9 342.85,274.39 342.94,274.69 343.12,275.04 343.42,275.62 343.59,276.09 343.84,276.8 344.29,277.96 344.43,278.27 344.54,278.6 344.63,278.83 344.7,279.03 344.93,279.42 344.95,279.46 345.3,280 346.14,281.3 346.48,281.82 346.52,281.9 346.66,282.11 346.75,282.23 346.8,282.31 347.61,283.46 347.82,283.77 347.9,283.88 348.52,284.8 348.67,285.02 348.87,285.32 348.98,285.49 349.11,285.67 349.2,285.83 349.34,285.97 350.58,287.72 350.85,288.28 351.27,288.69 351.27,288.7 353.45,290.85 353.58,290.98 353.78,291.12 354.66,291.97 355.19,292.52 355.27,292.59 355.44,292.77 355.93,293.21 356.43,293.63 358.38,295.26 358.5,295.37 358.54,295.4 358.85,295.67 358.99,295.79 358.99,295.79 359.05,295.84 360.17,296.66 360.71,297.07 360.75,297.1 360.81,297.14 360.87,297.19 360.95,297.24 362.76,298.56 362.77,298.56 363.31,298.92 363.65,299.15 364.71,299.85 365.06,300.04 365.71,300.4 366.83,300.97 366.98,301.03 367.01,301.05 368.24,301.69 368.76,301.97 368.98,302.08 369,302.09 368.32,303.5 368.24,303.66 367.12,305.95 365.93,308.43 365.29,309.76 363.33,313.36 363.31,313.4 362.72,314.48 362.65,314.6 362.58,314.72 362.5,314.85 360.41,318.3 359.79,319.32 358.84,320.73 358.38,321.42 357.15,323.23 356.7,323.9 354.45,326.98 353.58,328.16 353.45,328.34 353.44,328.35 352.58,329.41 351.07,331.2 349.95,332.63 349.54,333.09 349.5,333.14 348.52,334.26 347.45,335.47 345.03,338.03 343.59,339.54 342.13,341.08 342.09,341.12 341.75,341.47 341.71,341.5 341.53,341.69 341.27,341.94 340.15,342.96 338.95,344.05 334.72,347.89 334.36,348.22 334.33,348.25 333.76,348.7 333.73,348.72 330.01,351.63 328.41,352.82 325.67,354.87 325.59,354.93 325.54,354.96 325.48,355 325.38,355.07 323.87,356.07 321.33,357.76 320.99,357.98 319.39,358.95 318.94,359.21 315.28,361.27 314,362.02 312.85,362.69 311.61,363.41 311.03,363.72 310.72,363.88 310.69,363.89 309.07,364.67 306.48,365.93 304.14,366.96 303.93,367.06 302.5,367.62 300.24,368.52 299.28,368.99 299.21,369.02 298.15,369.43 297.3,369.76 297.1,369.84 296.54,370.17 294.28,371.35 292.6,372.24 292.4,372.34 292.36,372.36 292.29,372.4 291.92,372.56 291.36,372.79 289.35,373.64 288.54,373.98 286.36,374.79 284.42,375.32 283.52,375.57 281.37,376.27 279.89,376.59 279.49,376.67 278.54,376.87 278.08,376.96 277.71,377.03 277.07,377.14 274.56,377.43 274.05,377.49 273.68,377.53 271.73,377.78 271.1,377.87 271.05,377.87 270.54,377.9 269.63,377.94 269.55,377.95 268.51,377.99 267.63,378 264.7,378 264.02,378 263.58,378 263.3,377.99 263.18,377.98 263.03,377.97 262.9,377.94 261.61,377.73 260.72,377.68 259.77,377.57 259.71,377.56 259.13,377.49 257.35,377.26 256.12,377.12 255.57,377 254.84,376.87 253.76,376.68 253.46,376.61 253.02,376.52 252.85,376.46 250.5,375.85 249.91,375.65 248.49,375.15 248.02,375.08 247.09,374.76 244.98,374 243.25,373.37 243.09,373.31 241.61,372.56 240.62,372.06 240.05,371.78 238.46,371.02 237.26,370.37 236.69,370.13 236.61,370.09 236.48,370.03 235.12,369.19 234.78,368.98 233.74,368.31 232.67,367.62 232.57,367.56 231.99,367.1 231.85,366.99 230.19,365.75 229.73,365.41 228.91,364.8 227.71,363.77 226.75,362.93 226.43,362.69 225.7,362.13 225.26,361.72 223.95,360.5 223.8,360.35 222.64,359.08 221.47,357.76 221.45,357.73 220.33,356.52 220.31,356.49 220.07,356.16 219.62,355.55 218.72,354.43 217.46,352.85 217.44,352.82 217.27,352.62 217.21,352.51 217.02,352.24 216.93,352.13 215.7,350.2 215.4,349.72 214.92,348.97 214.89,348.92 214.29,347.89 213.68,346.85 212.48,344.6 212.33,344.32 212.26,344.14 212.2,343.99 212.15,343.85 211.91,343.39 211.7,342.96 211.63,342.8 210.93,341.33 210.83,341.08 210.8,341.03 210.71,340.79 210.53,340.32 210.47,340.15 209.66,338.03 209.31,337.12 208.99,336.16 208.48,334.56 208.23,333.67 208.09,333.09 207.77,331.78 207.74,331.63 207.63,331.14 207.53,330.73 207.51,330.63 207.32,329.91 207.07,328.59 207,328.16 206.98,328.01 206.95,327.83 206.81,326.77 206.35,323.44 206.34,323.23 206.29,322.37 206.23,320.84 206.17,319.61 206.22,318.3 206.22,318.25 206.14,316.92 206.03,315.65 206.04,315.48 206.14,313.42 206.15,313.36 206.17,313.05 206.25,312.23 206.54,309.65 206.69,308.43 206.7,308.27 206.75,307.88 206.78,307.77 206.8,307.62 207.16,305.96 207.44,304.67 207.49,304.28 207.63,303.5 207.73,303 207.73,302.98 207.25,303.31 207.24,303.32 206.98,303.5 205.54,304.49 205.35,304.61 204.98,304.86 204.16,305.35 201.29,307.07 200.61,307.49 199.06,308.43 197.62,309.31 197.41,309.43 197.29,309.49 195.68,310.26 194.93,310.62 193.99,311.08 190.75,312.67 189.81,313.13 189.35,313.36 189.26,313.41 186.53,314.53 185.82,314.83 185.06,315.14 183.73,315.62 180.88,316.59 179.52,317.06 177.93,317.6 176.46,318.03 175.95,318.18 175.56,318.3 174.18,318.71 173.71,318.85 172.5,319.12 171.19,319.44 171.02,319.48 167.67,320.26 166.09,320.57 164.2,320.93 163.44,321.07 163.21,321.1 162.98,321.14 162.97,321.14 162.35,321.22 161.16,321.36 157.41,321.83 156.23,321.91 152.36,322.16 149.71,322.31 149.66,322.31 148.65,322.32 146.37,322.3 140.85,322.24 140.74,322.24 140.26,322.21 136.51,321.73 136.08,321.67 132.59,321.32 131.58,321.31 131.55,321.31 130.29,321.09 129.15,320.9 127.09,320.53 126.65,320.44 125.2,320.15 122.64,319.62 121.72,319.38 121.44,319.31 121.41,319.3 118.24,318.48 117.63,318.3 116.79,318.05 115.14,317.56 114.01,317.23 113.89,317.2 113.77,317.15 113.22,316.94 111.86,316.43 109.64,315.6 106.93,314.57 106.42,314.38 106.27,314.3 105.42,313.95 104.58,313.58 104.29,313.48 104.02,313.36 102,312.49 101.87,312.43 101.31,312.17 101.18,312.11 101.11,312.08 97.25,310.01 97.07,309.92 94.28,308.43 93.88,308.21 92.14,307.23 92.05,307.18 91.03,306.51 89.07,305.25 88.87,305.12 87.21,304.01 86.45,303.5 85.63,302.95 83.77,301.61 83.38,301.33 82.59,300.72 82.28,300.49 81.97,300.25 81.45,299.84 80.75,299.25 79.94,298.56 78.49,297.35 77.35,296.38 75.33,294.68 74.15,293.63 73.44,293 73.14,292.76 72.42,292.24 72.41,292.23 71.16,291.36 70.87,291.17 70.86,291.16 70.39,290.86 70.12,290.75 69.71,290.6 69.4,290.4 69.27,290.37 68.98,290.16 68.92,290.12 68.52,289.87 68.07,289.71 67.49,289.43 67.47,289.42 65.95,288.95 65.73,288.88 65.65,288.85 65.59,288.83 65.54,288.81 65.47,288.79 65.21,288.7 63.56,288.13 63.13,288.05 62.56,287.97 62.26,287.93 62.05,287.85 61.62,287.84 60.88,287.68 59.86,287.61 59.75,287.6 59.59,287.59 59.25,287.57 59.23,287.57 58.9,287.55 58.62,287.54 58.46,287.54 58.3,287.52 57.65,287.44 57.63,287.44 56.68,287.48 55.14,287.44 53.9,287.54 53.03,287.53 52.7,287.56 51.88,287.64 51.68,287.68 49.7,288.05 49.39,288.07 48.69,288.14 47.76,288.33 46.67,288.56 45.89,288.7 45.87,288.7 45.39,288.82 43.59,289.13 42.83,289.38 41.51,289.83 41.46,289.83 41.37,289.86 41.29,289.89 41.24,289.91 39.11,290.47 37.9,291.01 37.63,291.13 35.72,291.96 34.81,292.32 34.32,292.55 32.97,293.16 32.69,293.29 32.37,293.47 32.06,293.63 31.77,293.79 30.96,294.26 28.67,295.59 28.66,295.59 28.55,295.66 28.04,295.98 27.86,296.1 26.63,296.88 26.5,296.97 26.5,296.97 26.5,296.96 26.29,296.62 25.93,296.17 25.88,296.1 24.19,293.63 23.6,292.77 23.11,292 22.25,290.64 22.03,290.29 21.06,288.7 18.91,285.15 18.5,284.44 18.18,283.88 18.12,283.77 17.4,282.51 16.22,280.33 15.5,278.83 15.37,278.56 14.66,277.15 13.78,275.38 13.25,274.19 13.13,273.9 12.75,273.04 11.81,270.84 11.57,270.32 11.1,268.97 9.43,264.22 9.36,264.04 8.57,261.98 8.32,261.22 7.89,259.91 7.85,259.92 7.61,259.1 6.47,255.31 6.28,254.63 6.18,254.24 6.16,254.17 5.04,249.25 5.04,249.24 4.65,247.21 4,244.31 3.98,244.25 3.91,243.85 3.73,242.52 3.68,242.14 3.39,239.85 3.33,239.37 2.8,235.16 2.68,234.44 2.63,234.1 2.52,233.26 2.47,232.9 2.43,232.2 2.42,232.1 2.25,229.51 2.17,228.4 2.13,227.74 2.11,227.39 2.1,226.33 2.06,224.57 2.02,222.33 2,221.52 2.05,219.64 2.1,217.94 2.1,216.7 2.13,216.23 2.14,216.01 2.15,215.87 2.25,214.71 2.56,211.27 2.69,209.78 3.08,205.35 3.14,204.98 3.16,204.84 3.37,203.73 3.91,200.77 3.84,199.98 3.84,199.91 3.84,199.32 3.87,198.07 3.88,197.39 3.96,196.03 4.05,194.98 4.1,194.45 4.22,193.88 4.48,192.65 4.49,192.6 4.62,191.57 4.79,190.27 4.84,190.05 5.04,189.01 5.33,187.16 5.46,186.44 5.8,185.11 5.81,185.08 5.95,184.55 6.12,183.98 6.45,182.8 6.9,181.44 6.98,181.2 7.36,180.18 7.8,178.99 8,178.49 8.03,178.4 8.32,177.72 9.38,175.25 9.7,174.51 9.99,173.91 11.09,171.93 11.82,170.71 12,170.31 12.32,169.63 13.23,168.08 13.25,168.04 13.54,167.61 13.67,167.42 13.81,167.2 14.11,166.77 15.1,165.38 15.83,164.36 16.06,164.03 16.99,162.92 17.62,162.16 18.18,161.47 18.39,161.21 18.68,160.9 19.09,160.45 20.42,158.99 20.32,158.96 21.28,157.98 21.53,157.73 21.89,157.36 23.11,156.2 23.58,155.75 23.68,155.66 23.8,155.55 23.84,155.52 23.88,155.48 24.05,155.33 24.11,155.28 26.52,153.24 26.61,153.17 26.77,153.05 28.04,152.07 28.06,152.06 29.9,150.73 30.12,150.58 30.74,150.18 31.15,149.93 32.77,148.93 32.97,148.82 35.38,147.42 37.39,146.32 37.9,146.09 38.89,145.65 39.79,145.25 41.99,144.4 42.83,144.1 43.95,143.7 46.21,142.81 47.22,142.53 47.68,142.41 47.76,142.37 48.69,142.03 50.16,141.69 52.7,141.19 54.28,140.88 55.09,140.72 56.12,140.51 56.33,140.47 57.63,140.37 57.73,140.36 60.12,140.15 61.52,140.08 62.56,140.05 62.74,140.04 64.11,140.02 65.69,140.01 67.49,140.06 68.02,140.07 71.12,140.32 72.42,140.49 72.53,140.5 Z M 71.44,148.08 L 71.34,148.06 71.24,148.05 67.49,147.72 66.77,147.66 65.63,147.64 64.53,147.62 64.43,147.61 64.4,147.61 61.07,147.73 61,147.73 60.9,147.74 57.63,148.05 57.55,148.06 55.33,148.4 55.23,148.42 51.84,149.14 48.6,150.04 48.47,150.07 47.76,150.33 47.07,150.58 44.25,151.61 44.16,151.64 41.01,153.08 38.03,154.66 37.92,154.72 37.9,154.73 36.61,155.52 36,155.89 33.23,157.8 33.14,157.86 33.09,157.9 29.91,160.45 29.59,160.7 29.52,160.77 28.04,162.14 26.98,163.13 24.36,165.98 23.85,166.54 21.79,169.2 21.75,169.25 21.69,169.33 21.04,170.31 18.61,174.02 18.56,174.11 18.18,174.81 17.95,175.25 16.94,177.17 15.56,180.18 15.5,180.32 14.32,183.48 14.3,183.54 14.27,183.63 13.28,186.85 12.74,189.03 12.72,189.13 12.71,189.15 12.55,190.05 12.11,192.44 12.09,192.57 11.6,197.03 11.59,197.13 11.47,200.5 11.47,200.63 11.66,205.12 11.67,205.21 11.91,207.45 11.94,207.64 12.32,209.78 12.6,211.38 12.72,212.06 13.57,215.33 13.58,215.39 13.61,215.48 13.96,216.56 14.65,218.69 15.92,221.81 15.95,221.9 15.99,221.99 16.49,223.04 17.44,225.04 19.1,227.97 19.14,228.05 19.18,228.11 20.11,229.51 21.67,231.84 21.73,231.92 23.68,234.43 23.79,234.58 23.88,234.68 25.36,236.37 27.72,238.77 27.79,238.84 27.86,238.91 28.04,239.08 29.8,240.66 30.36,241.17 32.11,242.58 32.18,242.64 35.97,245.29 37.95,246.49 41.01,248.11 44.16,249.55 47.41,250.76 50.63,251.75 50.75,251.79 55.14,252.76 55.23,252.78 58.67,253.26 62.12,253.53 65.58,253.56 67.49,253.46 69.05,253.39 71.34,253.13 74.76,252.56 78.14,251.78 81.35,250.79 81.48,250.75 84.63,249.57 84.75,249.52 85.41,249.24 86.81,248.62 89.9,247.04 92.88,245.29 96.05,243.07 96.67,242.64 99.26,240.49 99.32,240.45 99.39,240.38 101.85,238.09 103.41,236.47 103.5,236.37 106.38,232.93 106.47,232.83 106.93,232.2 107.8,231.02 108.77,229.51 109.62,228.19 109.68,228.11 109.73,228.02 111.37,225.13 111.39,225.09 112.38,223.08 112.44,222.96 114.07,219.02 114.16,218.81 114.21,218.69 114.93,216.56 115.82,213.32 115.85,213.22 115.88,213.13 116.11,212.05 116.58,209.83 116.59,209.78 117.04,206.5 117.06,206.4 117.07,206.3 117.34,202.94 117.39,200.7 117.39,200.57 117.19,196.08 117.19,195.95 116.6,191.49 116.58,191.36 116.29,190.05 115.61,186.98 115.58,186.85 114.23,182.57 114.19,182.44 113.25,180.18 112.47,178.3 112.43,178.2 112.38,178.12 110.58,174.65 110.31,174.13 109.15,172.21 109.1,172.13 109.02,172.02 107.77,170.31 106.93,169.17 105.04,166.59 104.91,166.44 101.88,163.13 98.96,160.45 98.47,160.01 97.07,158.91 95.82,157.94 95.76,157.89 95.71,157.86 91.98,155.36 91.93,155.33 91.84,155.28 88.91,153.61 87.21,152.77 86.9,152.62 86.78,152.56 82.63,150.84 82.51,150.79 81.89,150.58 80.39,150.07 77.35,149.23 77.14,149.18 77.05,149.15 76.99,149.13 76.95,149.12 74.43,148.59 73.66,148.42 71.44,148.08 Z M 126.67,178.55 L 126.65,178.54 125.55,178.02 125.5,178 123.87,176.94 123.84,176.92 123.82,176.9 122.47,175.71 121.96,175.14 121.24,174.32 122.79,178.01 123.56,180.18 124.13,181.77 125.19,185.63 125.22,185.74 126.08,190.05 126.24,190.82 126.26,190.97 126.65,194.4 126.85,196.12 126.85,196.27 127,201.44 127,201.6 126.83,205.47 126.82,205.59 126.65,207.27 126.56,208.17 126.41,209.11 126.31,209.78 125.96,212 125.94,212.12 125.92,212.19 124.75,217.24 124.73,217.31 124.7,217.42 123.11,222.35 123.07,222.45 122.7,223.33 121.06,227.23 120.99,227.36 119.91,229.51 119.25,230.83 117.25,234.16 117.17,234.29 117.1,234.39 114.14,238.63 114.07,238.72 113.45,239.46 110.75,242.7 110.64,242.81 107.95,245.61 106.93,246.51 103.97,249.15 103.92,249.24 103.73,249.6 102.9,251.22 102.23,252.83 101.48,255.03 100.93,257.3 100.57,259.53 100.56,259.63 100.39,263.02 100.39,263.12 100.63,266.22 100.63,266.28 101.07,268.79 101.08,268.85 101.12,268.97 101.86,271.57 102.46,273.16 102.5,273.28 103.4,275.1 104.01,276.32 104.04,276.39 105.42,278.52 105.46,278.59 105.51,278.65 106.67,280.16 106.93,280.49 107.06,280.66 108.22,281.9 108.27,281.96 110.15,283.68 110.35,283.87 110.4,283.91 110.41,283.92 112.21,285.27 112.27,285.32 117.21,287.36 122.11,289.05 122.3,289.12 128.01,290.61 128.99,290.86 129.14,290.9 134.24,291.82 134.34,291.84 134.49,291.86 136.25,292.07 139.64,292.48 144.82,292.74 144.97,292.75 145.13,292.75 146.37,292.74 149.15,292.72 150.31,292.71 153.76,292.49 153.91,292.48 157.35,292.11 162.47,291.27 162.72,291.23 165.5,290.75 165.6,290.73 168.27,290.12 168.33,290.11 170.48,289.39 172.1,288.7 172.56,288.5 174.54,287.43 176.43,286.19 176.48,286.15 178.33,284.67 178.62,284.44 180.56,282.49 180.62,282.42 182.17,280.49 182.2,280.46 182.24,280.4 183.31,278.79 183.61,278.34 184.15,277.38 184.18,277.34 184.92,275.81 185.76,273.71 185.82,273.54 186.41,271.55 186.88,269.34 186.92,268.97 187.15,267.09 187.22,264.27 187.04,262.02 185.82,261.73 183.11,261.09 183,261.06 176.78,259.05 176.71,259.02 172.99,257.43 172.89,257.38 168.24,254.98 168.11,254.9 164.76,252.86 164.66,252.79 162.51,251.3 161.82,250.76 159.87,249.24 159.42,248.89 159.33,248.81 159.27,248.76 155.38,245.26 155.31,245.18 155.28,245.15 151.71,241.32 151.61,241.2 149.15,238.14 149.11,238.08 149.04,237.98 146.37,234.08 146.09,233.66 144.13,230.26 144.08,230.16 144.04,230.09 143.75,229.51 142.29,226.57 141.97,225.79 140.27,221.58 139.05,217.72 137.8,212.48 137.36,209.78 137.15,208.49 136.7,203.13 136.68,199.09 136.9,195.05 137.4,191.04 137.58,190.05 138.13,187.06 139.15,183.15 139.58,181.81 139.91,180.77 140.26,179.69 140.38,179.3 140.57,178.85 140.61,178.75 141.05,177.67 141.37,176.91 141.72,176.05 141.97,175.44 142.2,174.88 142.4,174.39 142.43,174.32 141.14,175.77 141.09,175.82 141.07,175.84 140.04,176.76 139.69,177.01 138.75,177.65 137.37,178.4 135.77,178.99 134.12,179.41 134.11,179.41 134.04,179.41 132.39,179.58 130.73,179.56 130.66,179.55 129.56,179.41 129.52,179.4 129.46,179.37 126.67,178.55 Z M 181.26,140.62 L 182.15,140.39 185.82,139.46 186.47,139.29 190.46,138.61 194.47,138.16 194.55,138.15 199.78,137.98 199.86,137.98 203.89,138.17 205.54,138.33 207.91,138.58 210.57,139.01 210.72,139.04 213.28,139.57 214.58,139.93 218.33,140.96 218.4,140.98 218.51,141.02 220.98,141.87 221.83,142.22 224.61,143.37 224.79,143.45 225.26,143.67 228.33,145.15 228.39,145.18 228.49,145.24 233.02,147.87 236.25,150.11 236.4,150.22 236.43,150.24 236.86,150.58 239.49,152.64 239.6,152.74 242.52,155.37 242.6,155.45 244.98,157.87 245.36,158.25 245.43,158.33 247.02,160.2 247.91,161.23 247.98,161.32 248.03,161.38 250.35,164.45 250.4,164.51 250.23,164.03 250.18,163.89 249.99,163.38 249.98,163.34 249.96,163.29 249.87,162.81 249.45,160.71 249.44,160.66 249.44,160.66 249.44,160.59 249.35,158.93 249.36,158.78 249.49,157.42 249.49,157.37 249.5,157.32 249.52,157.29 250.26,154.47 250.28,154.43 251.12,152.69 251.21,152.55 251.3,152.42 252.24,151.04 252.66,150.58 253.6,149.58 255.4,148.18 257.88,146.94 257.98,146.89 259.03,146.55 260.99,146.16 260.88,146.14 260.42,146.09 259.9,146.03 259.73,146.01 258.3,145.85 257.42,145.7 254.48,145.2 254.36,145.18 254.29,145.16 249.26,143.93 249.12,143.89 245.42,142.7 244.98,142.53 242.93,141.74 242.83,141.69 240.45,140.66 239.69,140.28 236.99,138.91 236.89,138.86 236.79,138.8 232.34,136.15 232.25,136.08 231.42,135.49 228.05,133.06 227.93,132.97 225.46,130.85 225.26,130.68 224,129.6 223.89,129.49 221.12,126.76 221.02,126.65 216.85,121.7 216.8,121.64 216.74,121.55 214.48,118.39 213.15,116.22 212.45,115.07 212.39,114.98 210.39,111.12 209.97,110.31 209.94,110.24 209.89,110.14 207.91,105.36 207.49,104.12 206.63,101.56 205.34,96.4 204.86,93.77 204.83,93.73 203.61,91.83 203.27,91.39 202.23,90.04 202.16,89.96 200.42,88.1 200.38,88.06 198.48,86.36 198.43,86.31 195.59,84.3 193.56,83.16 191.43,82.2 191.37,82.17 188.97,81.35 188.7,81.26 187.05,80.85 186.99,80.83 185.82,80.61 185.28,80.51 182.98,80.3 182.46,80.25 182.4,80.24 182.4,80.24 180.14,80.24 180.05,80.24 179.99,80.24 176.61,80.6 176.55,80.61 173.91,81.2 173.79,81.23 173.74,81.24 171.93,81.84 171.59,81.95 171.55,81.96 169.67,82.76 169.46,82.85 169.39,82.88 165.28,86.05 165.2,86.11 165.06,86.23 162.1,88.79 161.14,89.62 158.67,92.03 156.29,94.54 156.13,94.71 153.79,97.39 150.53,101.62 147.51,106.02 146.37,107.9 145.66,109.07 144.57,111.12 143.17,113.78 141,118.5 140.91,118.68 138.04,126.46 137.97,126.65 137.24,129 137.22,129.07 136.85,130.85 136.76,131.28 136.5,133.52 136.43,135.78 136.55,138.04 136.88,140.27 137.4,142.47 138.11,144.62 139,146.7 140.03,148.63 140.07,148.7 141.27,150.54 141.3,150.58 141.3,150.58 142.69,152.36 144.59,154.34 145.41,155.08 145.49,155.16 146.37,155.83 147.73,156.87 149.65,158.06 151.21,158.84 151.32,158.89 151.95,159.21 152.18,159.32 154.95,156.37 157.88,153.59 158,153.5 161.71,150.58 163.14,149.46 163.21,149.41 163.31,149.35 166.57,147.18 168.98,145.83 169.99,145.25 170.1,145.2 170.2,145.15 173.72,143.42 176.22,142.41 177.36,141.95 177.47,141.9 177.54,141.88 181.26,140.62 Z M 241.24,247.03 L 239.34,248.63 238.62,249.24 238.24,249.56 238.15,249.63 238.06,249.7 233.83,252.78 232.77,253.44 230.4,254.91 230.26,254.98 225.26,257.49 224.42,257.92 224.27,257.98 221.49,259.1 220.64,259.45 215.5,261.07 210.25,262.24 205.54,262.88 204.91,262.96 204.91,262.96 204.94,262.97 205.54,263.09 207.11,263.43 207.17,263.45 207.56,263.58 208.22,263.81 209.23,264.27 209.33,264.32 209.82,264.59 210.29,264.87 210.68,265.15 211.86,266.02 211.89,266.05 213.09,267.19 213.97,268.26 214.01,268.31 214.03,268.34 214.41,268.97 215.18,270.23 215.21,270.3 215.21,270.3 215.84,271.84 216.38,273.99 216.4,274.07 216.55,276 216.55,276.06 216.46,277.6 216.45,277.72 216.37,278.3 216.33,278.54 216.32,278.6 216.17,279.25 216.12,279.49 216.07,279.68 216.05,279.75 215.71,280.73 215.5,281.32 217.92,278.14 220.51,275.09 220.62,274.98 225.26,270.53 226.22,269.61 226.27,269.56 227.02,268.97 229.42,267.09 232.7,264.8 236.13,262.75 239.67,260.9 244.58,258.81 244.98,258.67 248.36,257.53 252.22,256.47 256.14,255.69 260.1,255.13 262.75,254.91 264.7,254.85 266.75,254.8 270.74,254.92 274.72,255.32 278.67,255.95 278.78,255.97 281.31,256.53 282.13,256.75 284.42,257.39 285.05,257.56 285.16,257.6 285.23,257.62 288.91,258.88 291.23,258.76 293.54,258.45 295.81,257.95 298.58,257.04 300.71,256.11 302.76,255.01 304.14,254.1 304.71,253.73 305.39,253.2 306.54,252.3 308.97,249.93 309.01,249.9 309.06,249.85 309.54,249.24 311.17,247.19 311.22,247.13 312.47,245.17 313.55,243.11 314.22,241.55 314.26,241.45 314.82,239.85 315.44,237.61 315.87,235.32 316.07,233.59 315.49,229.51 315.07,226.54 315.05,226.44 313.5,219.7 313.47,219.55 311.35,212.97 311.3,212.82 310.03,209.78 308.56,206.25 305.36,200.12 305.24,199.9 304.14,198.17 301.53,194.06 301.45,193.93 299.41,191.14 299.29,190.98 298.54,190.05 297.13,188.27 292.97,183.43 291.35,181.86 288.68,179.77 286.76,178.58 284.75,177.56 282.71,176.75 282.63,176.72 280.53,176.09 280.44,176.07 277.75,175.53 277.67,175.52 275.48,175.31 273.84,175.28 273.75,175.28 271.01,175.45 270.93,175.46 270.89,175.46 267.13,176.22 267.08,176.23 264.93,176.94 264.7,177.04 263.27,177.65 262.86,177.83 259.99,179.44 259.92,179.48 259.87,179.52 259.41,179.84 259.26,179.94 258.83,180.24 258.51,180.46 258.56,180.61 259.68,184.37 259.71,184.48 260.62,188.3 260.9,190.05 261.25,192.18 261.27,192.29 261.28,192.37 261.69,196.27 261.72,197.36 261.82,200.31 261.73,204.35 261.72,204.42 261.7,204.54 261.17,209.75 261.16,209.78 260.45,213.61 260.43,213.72 260.41,213.79 260.4,213.83 259.47,217.65 258.67,220.15 258.27,221.38 258.24,221.49 256.25,226.42 256.22,226.49 256.17,226.59 254.75,229.51 254.45,230.12 253.16,232.33 252.47,233.52 252.41,233.62 252.35,233.71 250.19,236.99 248.56,239.11 247.8,240.1 247.72,240.19 244.98,243.27 244.19,244.16 244.14,244.21 244.05,244.29 241.24,247.03 Z M 311.97,56.39 L 311.94,56.34 311.88,56.25 310.07,53.45 310.06,53.43 308.96,51.93 308.73,51.62 308.65,51.51 305.76,48.06 305.7,47.99 304.75,47 304.15,46.37 304.14,46.36 304.08,46.3 300.77,43.26 300.67,43.18 299.22,42.06 297.11,40.44 297.03,40.38 294.28,38.6 294.21,38.55 294.15,38.52 294.13,38.51 294.07,38.47 291.79,37.17 291.14,36.81 289.12,35.81 289.04,35.77 284.89,34.05 284.8,34.01 284.42,33.89 281.6,32.97 281.5,32.94 281.44,32.92 278.49,32.2 277.08,31.85 276.98,31.83 273.57,31.25 270.22,30.94 270.08,30.92 265.59,30.83 265.53,30.82 265.43,30.83 264.7,30.87 264.36,30.88 262.07,31 258.73,31.42 258.63,31.43 258.53,31.44 255.22,32.05 254.66,32.2 251.96,32.9 251.87,32.92 251.77,32.95 250.69,33.3 248.57,33.98 245.45,35.25 245.36,35.29 245.27,35.33 242.24,36.77 242.23,36.77 240.26,37.86 240.14,37.92 236.36,40.33 236.25,40.4 232.69,43.14 232.61,43.2 230.11,45.46 230.01,45.55 226.91,48.79 226.82,48.89 225.26,50.83 224.38,51.93 224.01,52.39 223.97,52.44 223.91,52.52 222.41,54.71 222,55.29 220.84,57.21 220.79,57.3 219.16,60.36 217.75,63.44 217.72,63.51 216.89,65.67 215.53,69.95 215.51,70.01 215.49,70.11 215.14,71.66 214.51,74.49 214.49,74.59 213.91,79.04 213.89,79.2 213.69,83.69 213.69,83.79 213.74,86.04 213.75,86.17 214.13,90.64 214.15,90.77 214.25,91.39 214.33,91.91 214.49,92.99 215.2,96.28 215.21,96.35 215.24,96.45 216.12,99.64 216.13,99.69 216.85,101.82 216.9,101.94 217.71,104.03 219.11,107.1 219.15,107.19 219.19,107.28 219.81,108.43 220.77,110.25 221.31,111.12 222.56,113.11 222.61,113.19 222.66,113.28 223.34,114.23 224.61,116.02 225.26,116.8 226.76,118.62 226.82,118.69 226.89,118.77 229.18,121.23 230.8,122.79 230.9,122.88 234.33,125.77 234.44,125.85 238.11,128.42 238.22,128.5 240.14,129.66 242.39,130.85 243.12,131.24 243.2,131.29 243.26,131.31 243.29,131.33 244.98,132.1 246.36,132.73 249.51,133.91 249.6,133.94 252.82,134.93 252.94,134.97 256.32,135.75 259.74,136.32 264.21,136.71 264.37,136.73 264.7,136.73 268.86,136.73 268.96,136.72 272.32,136.46 272.45,136.45 276.89,135.76 276.98,135.75 280.36,134.97 282.51,134.34 282.52,134.34 282.7,134.28 284.42,133.7 284.83,133.56 288.97,131.84 289.09,131.78 290.98,130.85 291.11,130.79 294.04,129.13 294.1,129.1 294.18,129.04 297.01,127.21 298.82,125.89 298.9,125.83 298.92,125.81 301.56,123.62 304.03,121.32 304.13,121.23 304.14,121.22 304.35,120.99 307.16,117.92 307.25,117.83 309.98,114.26 310.06,114.15 311.99,111.12 312.47,110.37 312.54,110.25 313.62,108.28 314,107.47 314.61,106.19 315.06,105.24 315.1,105.15 315.14,105.06 316.41,101.94 316.64,101.26 317.13,99.82 317.17,99.69 317.72,97.66 318.34,95.36 318.36,95.26 318.99,91.39 319.18,90.28 319.19,90.21 319.2,90.15 319.2,90.15 319.21,90.01 319.51,86.77 319.57,86.1 319.59,82.73 319.59,82.67 319.59,82.57 319.46,80.01 319.42,79.2 319.17,76.97 319.16,76.87 318.99,75.77 318.81,74.59 318.19,71.66 318.11,71.29 318.1,71.23 318.07,71.13 317.17,67.89 316.76,66.73 316.05,64.71 316.01,64.62 315.99,64.56 315.98,64.53 314.82,61.79 314.67,61.43 314,60.08 313.68,59.41 313.63,59.32 311.97,56.39 Z M 318.56,327.84 L 318.58,327.77 318.6,327.68 319.16,324.35 319.37,322.45 319.4,322.12 319.42,321.99 319.56,319.75 319.59,316.38 319.59,316.28 319.59,316.18 319.42,312.9 319.42,312.82 319.17,310.59 319.16,310.46 318.84,308.43 318.82,308.24 318.21,305.4 318.11,304.94 318.1,304.84 318.08,304.81 316.84,300.53 316.79,300.38 315.58,297.13 315.56,297.07 314.15,294.04 313.66,293 312.58,291.03 312.52,290.91 311.11,288.7 310.11,287.12 310.02,286.99 307.29,283.43 307.23,283.35 304.14,279.98 304.11,279.94 302.48,278.38 299.04,275.5 298.95,275.41 298.9,275.37 295.11,272.72 291.11,270.4 288.03,268.97 286.92,268.45 284.42,267.54 282.58,266.87 279.6,266.07 278.12,265.67 273.7,264.89 273.63,264.88 273.5,264.86 273.4,264.86 266.68,264.42 265.49,264.46 264.7,264.49 263.32,264.54 263.22,264.54 263.09,264.55 259.74,264.87 256.32,265.45 252.94,266.22 249.63,267.24 246.39,268.45 245.26,268.97 243.23,269.89 240.17,271.52 238.2,272.72 235.34,274.69 232.61,276.82 230.87,278.34 228.4,280.78 226.08,283.35 225.26,284.42 223.27,287.01 222.14,288.7 221.98,288.94 220.23,291.93 218.65,295.01 217.18,298.56 216.94,299.16 216.87,299.31 215.52,303.6 215.49,303.69 215.4,304.11 214.74,306.98 214.72,307.04 214.72,307.06 214.71,307.14 214.49,308.43 214.15,310.42 214.15,310.46 213.9,312.69 213.89,312.82 213.86,313.36 213.69,317.31 213.69,317.4 213.71,318.3 213.74,319.65 213.75,319.85 214.05,323.23 214.14,324.32 214.72,327.74 214.81,328.16 215.4,330.7 215.49,331.12 216.12,333.28 216.15,333.37 217.69,337.59 217.72,337.68 217.88,338.03 219.62,341.76 219.69,341.9 221.93,345.79 221.98,345.88 223.37,347.89 223.89,348.65 223.93,348.7 223.99,348.78 225.26,350.41 225.59,350.84 226.06,351.44 227.54,353.13 227.6,353.21 230.87,356.47 232.34,357.76 232.56,357.95 235.12,359.95 235.21,360.02 235.34,360.13 238.2,362.1 238.28,362.15 240.4,363.37 242.17,364.39 244.98,365.73 245.21,365.84 245.3,365.88 245.36,365.91 249.6,367.56 249.69,367.59 249.8,367.62 252.91,368.58 254.84,369.05 255.22,369.15 257.42,369.58 260.76,370.05 260.85,370.06 260.95,370.07 264.31,370.34 264.7,370.35 266.55,370.39 266.65,370.39 270.02,370.27 270.14,370.27 270.15,370.27 274.56,369.78 274.61,369.78 274.67,369.77 274.77,369.75 275.68,369.59 278.08,369.15 281.34,368.29 281.44,368.27 281.53,368.24 283.46,367.62 284.42,367.31 284.74,367.21 287.86,365.94 287.95,365.91 288.04,365.87 289.08,365.37 291.08,364.42 294.01,362.76 294.1,362.71 294.21,362.64 296.34,361.26 297.03,360.81 299.72,358.78 299.77,358.74 299.85,358.68 302.41,356.49 304.03,354.94 304.13,354.85 304.14,354.84 307.16,351.54 307.25,351.44 309.97,347.89 309.98,347.88 310.06,347.77 312.47,343.98 312.52,343.9 313.63,341.88 315.12,338.74 316.42,335.53 317.14,333.4 317.18,333.28 317.49,332.23 317.81,331.12 318.49,328.16 318.56,327.84 Z M 147.54,189.13 L 147.37,190.05 146.91,192.54 146.48,195.98 146.37,198.13 146.3,199.44 146.33,202.81 146.33,202.94 146.37,203.41 146.72,207.41 146.73,207.51 147.31,210.93 148.09,214.31 149.47,218.72 150.78,221.93 152.12,224.76 152.22,224.98 152.28,225.09 153.36,227.06 154.89,229.51 155.15,229.91 155.2,230 155.25,230.08 157.17,232.78 157.21,232.83 158.61,234.58 158.7,234.68 161.73,237.99 161.82,238.09 164.62,240.66 165.12,241.12 165.2,241.19 167.85,243.26 167.91,243.3 167.99,243.36 170.76,245.27 172.68,246.43 172.79,246.5 176.58,248.48 176.77,248.58 176.89,248.63 178.26,249.24 178.95,249.54 182.1,250.71 182.19,250.75 182.29,250.78 184.81,251.56 185.5,251.77 185.82,251.85 187.68,252.31 187.78,252.33 192.33,253.13 195.78,253.46 199.24,253.59 200.37,253.56 201.55,253.53 204.91,253.27 204.97,253.26 205.11,253.25 205.54,253.19 207.63,252.9 208.44,252.78 211.73,252.08 211.8,252.06 211.89,252.04 215.1,251.15 215.14,251.14 217.26,250.42 217.39,250.38 219.48,249.56 220.19,249.24 222.54,248.16 222.63,248.13 222.72,248.08 225.26,246.74 225.7,246.5 227.29,245.54 227.62,245.34 227.73,245.27 229.6,244.02 232.28,241.99 232.36,241.93 232.44,241.87 233.24,241.19 235,239.69 237.4,237.32 237.47,237.25 237.54,237.18 238.37,236.26 239.8,234.68 241.86,232.02 241.93,231.95 241.98,231.87 242.51,231.1 243.61,229.51 243.9,229.1 245.6,226.19 245.65,226.11 245.7,226.02 246.25,224.94 247.23,223.02 248.54,219.92 248.58,219.83 248.62,219.73 249.01,218.63 249.75,216.56 250.64,213.32 250.67,213.22 250.69,213.13 250.92,212.05 251.4,209.83 251.4,209.78 251.86,206.5 251.88,206.4 251.88,206.3 252.16,202.94 252.2,200.98 252.2,200.7 252.21,200.57 252.21,200.56 252.16,198.32 251.89,194.96 251.88,194.86 251.87,194.76 251.41,191.43 251.11,190.05 250.7,188.14 250.68,188.04 250.67,187.97 250.66,187.94 249.96,185.41 249.77,184.7 249.04,182.57 249.01,182.47 248.2,180.38 246.91,177.55 246.8,177.32 246.75,177.2 245.18,174.22 245.11,174.11 245.08,174.05 242.7,170.31 242.67,170.26 242.63,170.2 240.6,167.52 240.56,167.46 240.5,167.39 239.79,166.56 238.31,164.82 235.95,162.43 235.88,162.36 235.81,162.29 233.31,160.03 231.9,158.89 231.46,158.54 229.65,157.21 226.82,155.38 226.74,155.33 226.66,155.28 225.26,154.48 223.73,153.61 222.05,152.79 221.72,152.62 221.6,152.56 219.54,151.66 216.66,150.58 216.39,150.48 216.3,150.44 216.2,150.41 213.75,149.66 212.98,149.42 210.8,148.89 210.71,148.86 208.44,148.42 205.54,148.01 205.01,147.94 202.33,147.72 201.55,147.66 198.19,147.64 198.12,147.63 197.99,147.64 195.09,147.79 194.63,147.81 190.18,148.4 190.08,148.41 186.79,149.11 186.69,149.13 186.59,149.16 185.82,149.37 184.11,149.84 183.35,150.05 181.79,150.58 181.22,150.77 181.13,150.81 178.01,152.07 177.95,152.1 177.86,152.14 176.82,152.63 174.82,153.58 171.89,155.25 171.8,155.29 171.72,155.34 170.75,155.97 168.89,157.17 166.21,159.21 166.13,159.26 166.09,159.29 166.05,159.33 163.99,161.08 163.49,161.51 161.87,163.06 161.79,163.13 161.18,163.79 160.32,164.71 159.43,165.67 156.54,169.27 155.82,170.31 154.58,172.13 152.82,175.12 151.24,178.2 149.47,182.47 148.41,185.77 147.54,189.13 Z M 3.39,238.46 L 3.39,239.37 M 31.81,293.63 L 28.04,295.7 31.81,293.63 Z M 31.81,293.63" />
</svg>
