<?xml version="1.0" encoding="UTF-8"?>
<!DOCTYPE svg PUBLIC "-//W3C//DTD SVG 1.1//EN" "http://www.w3.org/Graphics/SVG/1.1/DTD/svg11.dtd">
<svg version="1.1" xmlns="http://www.w3.org/2000/svg" xmlns:xlink="http://www.w3.org/1999/xlink" width="400" height="400"  xml:space="preserve" id="body6">
    <!-- Generated by PaintCode - http://www.paintcodeapp.com -->
    <g id="body6-group">
        <path id="body6-bezier" stroke="none" fill="rgb(115, 94, 175)" d="M 199.5,151 C 195.14,151 190.91,151.56 186.88,152.62 165.66,158.2 150,177.52 150,200.5 150,227.84 172.16,250 199.5,250 226.84,250 249,227.84 249,200.5 249,173.16 226.84,151 199.5,151 Z M 364,200.5 C 364,291.35 290.13,365 199,365 107.87,365 34,291.35 34,200.5 34,144.66 61.9,95.32 104.57,65.59 131.32,46.94 163.88,36 199,36 290.13,36 364,109.65 364,200.5 Z M 364,200.5" />
        <path id="body6-bezier2" stroke="none" fill="rgb(61, 61, 61)" d="M 185.94,21.87 L 193.87,30.79 C 198.97,36.51 207.53,36.73 212.92,31.28 L 221.3,22.78 C 226.68,17.33 233.75,18.53 237.02,25.45 L 242.11,36.23 C 245.38,43.15 253.53,45.77 260.24,42.04 L 270.68,36.25 C 277.39,32.53 283.84,35.66 285.02,43.22 L 286.85,55 C 288.04,62.55 295.12,67.36 302.6,65.67 L 314.27,63.04 C 321.75,61.35 327.05,66.17 326.05,73.76 L 324.48,85.57 C 323.48,93.15 328.92,99.75 336.58,100.23 L 348.51,100.99 C 356.16,101.47 359.89,107.58 356.78,114.58 L 351.94,125.47 C 348.83,132.47 352.19,140.33 359.4,142.94 L 370.64,147.01 C 377.85,149.63 379.69,156.54 374.74,162.38 L 367.01,171.47 C 362.06,177.31 363.06,185.79 369.23,190.33 L 378.87,197.39 C 385.05,201.92 384.86,209.07 378.45,213.28 L 368.47,219.84 C 362.06,224.05 360.63,232.47 365.28,238.55 L 372.52,248.04 C 377.17,254.12 374.97,260.93 367.63,263.17 L 356.2,266.66 C 348.87,268.9 345.1,276.58 347.85,283.72 L 352.12,294.85 C 354.86,301.99 350.82,307.91 343.15,307.99 L 331.19,308.14 C 323.52,308.22 317.75,314.53 318.36,322.16 L 319.31,334.03 C 319.92,341.66 314.38,346.2 306.99,344.13 L 295.48,340.91 C 288.09,338.84 280.77,343.27 279.2,350.76 L 276.75,362.42 C 275.19,369.91 268.58,372.71 262.08,368.65 L 251.95,362.32 C 245.45,358.26 237.16,360.46 233.54,367.2 L 227.9,377.71 C 224.28,384.45 217.15,385.28 212.06,379.56 L 204.13,370.65 C 199.04,364.92 190.47,364.7 185.09,370.16 L 176.7,378.66 C 171.32,384.1 164.25,382.9 160.98,375.98 L 155.89,365.2 C 152.62,358.28 144.47,355.67 137.76,359.39 L 127.32,365.18 C 120.61,368.9 114.17,365.77 112.98,358.21 L 111.15,346.43 C 109.97,338.87 102.88,334.07 95.4,335.76 L 83.74,338.39 C 76.25,340.08 70.95,335.25 71.95,327.67 L 73.52,315.86 C 74.52,308.27 69.08,301.68 61.43,301.19 L 49.49,300.44 C 41.83,299.96 38.11,293.84 41.22,286.85 L 46.06,275.96 C 49.17,268.96 45.81,261.1 38.6,258.49 L 27.36,254.42 C 20.15,251.8 18.31,244.89 23.27,239.05 L 30.99,229.96 C 35.94,224.12 34.95,215.64 28.77,211.1 L 19.13,204.04 C 12.95,199.51 13.14,192.36 19.55,188.15 L 29.53,181.59 C 35.94,177.38 37.37,168.96 32.72,162.88 L 25.48,153.39 C 20.83,147.31 23.04,140.5 30.37,138.26 L 41.8,134.77 C 49.14,132.53 52.9,124.85 50.16,117.71 L 45.88,106.58 C 43.15,99.44 47.18,93.52 54.85,93.43 L 66.81,93.3 C 74.48,93.21 80.25,86.9 79.65,79.27 79.65,79.27 79.26,74.39 78.97,70.89 78.82,68.93 78.69,67.4 78.69,67.4 78.45,64.33 79.2,61.77 80.66,59.93 82.83,57.19 86.59,56.06 91.01,57.3 L 102.52,60.52 C 109.91,62.59 117.23,58.16 118.8,50.68 L 121.25,39.01 C 122.82,31.52 129.42,28.72 135.92,32.78 L 146.05,39.11 C 152.55,43.17 160.84,40.97 164.46,34.23 L 170.1,23.72 C 173.72,16.98 180.85,16.15 185.94,21.87 Z M 199.5,150 C 195.05,150 190.73,150.59 186.63,151.69 165.53,157.36 150,176.61 150,199.5 150,226.84 172.16,249 199.5,249 226.84,249 249,226.84 249,199.5 249,172.16 226.84,150 199.5,150 Z M 304.9,200.7 C 304.9,258.91 257.49,306.1 199,306.1 140.51,306.1 93.1,258.91 93.1,200.7 93.1,158.91 117.53,122.8 152.96,105.76 166.88,99.06 182.5,95.3 199,95.3 257.49,95.3 304.9,142.49 304.9,200.7 Z M 199,90.16 C 180.6,90.16 163.24,94.65 147.95,102.58 112.41,121.03 88.09,158.09 88.09,200.71 88.09,261.68 137.84,311.27 199,311.27 260.16,311.27 309.91,261.68 309.91,200.71 309.91,139.75 260.16,90.16 199,90.16 Z M 313.75,200.71 C 313.75,263.79 262.27,315.1 199,315.1 135.73,315.1 84.25,263.79 84.25,200.71 84.25,157.4 108.53,119.64 144.23,100.22 160.51,91.37 179.18,86.33 199,86.33 262.27,86.33 313.75,137.64 313.75,200.71 Z M 199,43.75 C 166.55,43.75 136.39,53.54 111.33,70.31 109.03,71.85 106.78,73.44 104.58,75.09 66.31,103.72 41.55,149.33 41.55,200.7 41.55,287.38 112.04,357.65 199,357.65 285.96,357.65 356.45,287.38 356.45,200.7 356.45,114.02 285.96,43.75 199,43.75 Z M 199,43.75" />
    </g>
</svg>
