<?xml version="1.0" encoding="UTF-8"?>
<!DOCTYPE svg PUBLIC "-//W3C//DTD SVG 1.1//EN" "http://www.w3.org/Graphics/SVG/1.1/DTD/svg11.dtd">
<svg version="1.1" xmlns="http://www.w3.org/2000/svg" xmlns:xlink="http://www.w3.org/1999/xlink" width="400" height="400"  xml:space="preserve" id="body7">
    <!-- Generated by PaintCode - http://www.paintcodeapp.com -->
    <defs>
        <filter id="body7-spinnerBasicShadow-outer" filterUnits="userSpaceOnUse">
            <feGaussianBlur stdDeviation="4" />
            <feOffset dx="0" dy="-0" result="blur" />
            <feFlood flood-color="rgb(0, 0, 0)" flood-opacity="0.58" />
            <feComposite in2="blur" operator="in" result="colorShadow" />
            <feComposite in="SourceGraphic" in2="colorShadow" operator="over" />
        </filter>
    </defs>
    <g id="body7-group">
        <path id="body7-bezier" stroke="none" fill="rgb(115, 94, 175)" d="M 229.05,37.48 L 237.26,55.83 C 245.45,74.26 259.03,92.92 278.01,111.82 278.01,111.82 273.66,116.15 267.01,122.77 270.71,125.95 274.18,129.38 277.4,133.04 283.9,126.54 288.13,122.31 288.13,122.31 307.04,141.29 325.7,154.87 344.13,163.05 L 362.47,170.91 C 380.9,179.17 390.11,189.14 390.11,200.82 390.11,212.57 380.9,222.42 362.47,230.36 L 344.13,238.58 C 325.7,246.76 307.04,260.34 288.13,279.32 288.13,279.32 283.98,275.16 277.57,268.76 274.42,272.37 271.02,275.75 267.4,278.89 273.83,285.29 278.01,289.45 278.01,289.45 259.03,308.35 245.45,327.02 237.26,345.44 L 229.05,363.79 C 220.79,382.21 210.94,391.43 199.5,391.43 187.82,391.43 177.86,382.21 169.6,363.79 L 161.38,345.44 C 153.2,327.02 139.62,308.35 120.63,289.45 120.63,289.45 125.08,285.01 131.85,278.23 128.27,275.07 124.91,271.66 121.8,268.03 114.98,274.85 110.51,279.32 110.51,279.32 91.61,260.34 72.94,246.76 54.52,238.58 L 36.17,230.36 C 17.98,222.42 8.89,212.57 8.89,200.82 8.89,189.14 17.98,179.17 36.17,170.91 L 54.52,163.05 C 72.94,154.87 91.61,141.29 110.51,122.31 110.51,122.31 115.06,126.86 121.97,133.77 125.14,130.08 128.58,126.63 132.24,123.43 125.25,116.44 120.63,111.82 120.63,111.82 127.56,104.92 133.77,98.05 139.27,91.21 148.81,79.32 156.18,67.53 161.38,55.83 161.38,55.83 164.95,47.85 167.39,42.42 168.65,39.61 169.6,37.48 169.6,37.48 177.86,19.3 187.82,10.2 199.5,10.2 210.94,10.2 220.79,19.3 229.05,37.48 Z M 247.79,141.9 C 244.4,145.28 240.91,148.75 237.44,152.21 234.76,154.87 232.1,157.52 229.49,160.12 221.17,153.77 210.78,150 199.5,150 195.35,150 191.32,150.51 187.47,151.47 180.72,153.16 174.51,156.23 169.18,160.37 163.35,154.54 157.24,148.43 151.39,142.58 147.65,145.69 144.21,149.16 141.13,152.93 147.04,158.84 153.21,165.01 159.1,170.9 153.37,178.97 150,188.84 150,199.5 150,210.83 153.81,221.27 160.21,229.62 153.95,235.89 147.29,242.54 140.97,248.87 143.98,252.58 147.34,256.01 150.99,259.09 157.4,252.69 164.14,245.95 170.48,239.6 178.63,245.52 188.66,249 199.5,249 210.19,249 220.09,245.61 228.18,239.85 234.7,246.34 241.64,253.24 248.19,259.77 251.91,256.71 255.34,253.31 258.42,249.61 251.94,243.13 245.09,236.28 238.63,229.82 245.13,221.44 249,210.92 249,199.5 249,188.75 245.57,178.8 239.75,170.69 243.19,167.25 246.73,163.71 250.26,160.18 252.95,157.49 255.63,154.81 258.25,152.19 255.11,148.43 251.6,144.99 247.79,141.9 Z M 247.79,141.9" />
        <path id="body7-bezier2" stroke="none" fill="rgb(61, 61, 61)" filter="url(#body7-spinnerBasicShadow-outer)" d="M 221.03,84.46 L 226.9,97.55 C 232.74,110.69 242.43,124 255.98,137.49 255.98,137.49 252.88,140.57 248.13,145.3 250.77,147.56 253.25,150.01 255.55,152.62 260.19,147.98 263.21,144.96 263.21,144.96 276.7,158.5 290.02,168.19 303.18,174.03 L 316.27,179.63 C 329.42,185.53 336,192.64 336,200.96 336,209.35 329.42,216.37 316.27,222.04 L 303.18,227.9 C 290.02,233.74 276.7,243.42 263.21,256.96 263.21,256.96 260.24,254 255.67,249.43 253.42,252 250.99,254.42 248.41,256.65 253,261.22 255.98,264.19 255.98,264.19 242.43,277.67 232.74,290.98 226.9,304.13 L 221.03,317.21 C 215.14,330.36 208.11,336.93 199.94,336.93 191.61,336.93 184.5,330.36 178.6,317.21 L 172.73,304.13 C 166.89,290.98 157.2,277.67 143.65,264.19 143.65,264.19 146.82,261.02 151.66,256.19 149.1,253.93 146.7,251.5 144.48,248.91 139.62,253.77 136.42,256.96 136.42,256.96 122.93,243.42 109.61,233.74 96.46,227.9 L 83.36,222.04 C 70.38,216.37 63.89,209.35 63.89,200.96 63.89,192.64 70.38,185.53 83.36,179.64 L 96.46,174.03 C 109.61,168.19 122.93,158.5 136.42,144.96 136.42,144.96 139.67,148.21 144.6,153.14 146.87,150.51 149.32,148.05 151.93,145.76 146.94,140.78 143.65,137.49 143.65,137.49 148.6,132.56 153.03,127.66 156.95,122.79 163.76,114.3 169.03,105.89 172.73,97.55 172.73,97.55 175.29,91.85 177.02,87.98 177.92,85.98 178.6,84.46 178.6,84.46 184.5,71.49 191.61,65 199.94,65 208.11,65 215.14,71.49 221.03,84.46 Z M 234.41,158.94 C 231.99,161.35 229.5,163.83 227.02,166.3 225.12,168.19 223.21,170.08 221.35,171.94 215.41,167.41 207.99,164.72 199.94,164.72 196.98,164.72 194.11,165.08 191.36,165.77 186.54,166.97 182.11,169.16 178.3,172.11 174.14,167.96 169.78,163.6 165.6,159.42 162.93,161.65 160.48,164.12 158.28,166.81 162.5,171.02 166.91,175.43 171.1,179.62 167.01,185.38 164.61,192.42 164.61,200.03 164.61,208.11 167.33,215.56 171.9,221.51 167.43,225.98 162.68,230.72 158.16,235.24 160.31,237.89 162.71,240.33 165.32,242.53 169.89,237.96 174.7,233.16 179.23,228.63 185.05,232.85 192.21,235.33 199.94,235.33 207.57,235.33 214.64,232.92 220.42,228.81 225.07,233.44 230.02,238.36 234.7,243.02 237.36,240.84 239.8,238.41 242,235.77 237.37,231.15 232.48,226.26 227.87,221.65 232.51,215.68 235.28,208.17 235.28,200.03 235.28,192.36 232.83,185.26 228.68,179.47 231.13,177.02 233.66,174.49 236.17,171.98 238.1,170.06 240.01,168.15 241.88,166.28 239.63,163.6 237.13,161.14 234.41,158.94 Z M 234.41,158.94" />
    </g>
</svg>
