<?xml version="1.0" encoding="UTF-8"?>
<!DOCTYPE svg PUBLIC "-//W3C//DTD SVG 1.1//EN" "http://www.w3.org/Graphics/SVG/1.1/DTD/svg11.dtd">
<svg version="1.1" xmlns="http://www.w3.org/2000/svg" xmlns:xlink="http://www.w3.org/1999/xlink" width="400" height="400"  xml:space="preserve" id="body12">
    <!-- Generated by PaintCode - http://www.paintcodeapp.com -->
    <path id="body12-bezier4" stroke="none" fill="rgb(115, 94, 175)" d="M 199.5,243.82 C 211.61,243.82 221.94,239.57 230.47,231.07 239.01,222.57 243.28,212.24 243.28,200.09 243.28,187.95 239.01,177.59 230.47,169.02 221.94,160.46 211.61,156.18 199.5,156.18 187.39,156.18 177.09,160.46 168.62,169.02 160.14,177.59 155.9,187.95 155.9,200.09 155.9,212.24 160.14,222.57 168.62,231.07 177.09,239.57 187.39,243.82 199.5,243.82 Z M 156.63,179.86 L 61.61,108.98 C 71.3,87.24 87.05,71.45 108.85,61.61 L 180.79,155.45 165.71,38.1 C 187.87,29.97 210.46,29.97 233.47,38.1 L 217.67,155.45 288.34,61.61 C 311.71,71.57 327.88,87.36 336.84,108.98 L 244.01,181.32 360.46,166.02 C 369.18,188.37 369.18,211.02 360.46,233.98 L 243.28,217.4 336.84,290.47 C 327.52,312.7 311.77,328.43 289.61,337.66 L 218.21,243.82 233.47,361.35 C 210.46,370.22 187.87,370.22 165.71,361.35 168.37,341.92 170.98,322.42 173.52,302.86 176.06,283.3 178.73,263.62 181.51,243.82 L 108.85,337.66 C 98.67,333.53 89.38,327.16 80.96,318.53 72.54,309.91 66.09,300.55 61.61,290.47 L 155.17,217.4 38.18,233.98 C 29.94,211.02 29.94,188.37 38.18,166.02 L 156.63,179.86 Z M 156.63,179.86" />
    <path id="body12-bezier3" stroke="none" fill="rgb(115, 94, 175)" d="M 185.94,21.87 L 193.87,30.79 C 198.97,36.51 207.53,36.73 212.92,31.28 L 221.3,22.78 C 226.68,17.33 233.75,18.53 237.02,25.45 L 242.11,36.23 C 245.38,43.15 253.53,45.77 260.24,42.04 L 270.68,36.25 C 277.39,32.53 283.84,35.66 285.02,43.22 L 286.85,55 C 288.04,62.55 295.12,67.36 302.6,65.67 L 314.27,63.04 C 321.75,61.35 327.05,66.17 326.05,73.76 L 324.48,85.57 C 323.48,93.15 328.92,99.75 336.58,100.23 L 348.51,100.99 C 356.16,101.47 359.89,107.58 356.78,114.58 L 351.94,125.47 C 348.83,132.47 352.19,140.33 359.4,142.94 L 370.64,147.01 C 377.85,149.63 379.69,156.54 374.74,162.38 L 367.01,171.47 C 362.06,177.31 363.06,185.79 369.23,190.33 L 378.87,197.39 C 385.05,201.92 384.86,209.07 378.45,213.28 L 368.47,219.84 C 362.06,224.05 360.63,232.47 365.28,238.55 L 372.52,248.04 C 377.17,254.12 374.97,260.93 367.63,263.17 L 356.2,266.66 C 348.87,268.9 345.1,276.58 347.85,283.72 L 352.12,294.85 C 354.86,301.99 350.82,307.91 343.15,307.99 L 331.19,308.14 C 323.52,308.22 317.75,314.53 318.36,322.16 L 319.31,334.03 C 319.92,341.66 314.38,346.2 306.99,344.13 L 295.48,340.91 C 288.09,338.84 280.77,343.27 279.2,350.76 L 276.75,362.42 C 275.19,369.91 268.58,372.71 262.08,368.65 L 251.95,362.32 C 245.45,358.26 237.16,360.46 233.54,367.2 L 227.9,377.71 C 224.28,384.45 217.15,385.28 212.06,379.56 L 204.13,370.65 C 199.04,364.92 190.47,364.7 185.09,370.16 L 176.7,378.66 C 171.32,384.1 164.25,382.9 160.98,375.98 L 155.89,365.2 C 152.62,358.28 144.47,355.67 137.76,359.39 L 127.32,365.18 C 120.61,368.9 114.17,365.77 112.98,358.21 L 111.15,346.43 C 109.97,338.87 102.88,334.07 95.4,335.76 L 83.74,338.39 C 76.25,340.08 70.95,335.25 71.95,327.67 L 73.52,315.86 C 74.52,308.27 69.08,301.68 61.43,301.2 L 49.49,300.44 C 41.83,299.96 38.11,293.84 41.22,286.85 L 46.06,275.96 C 49.17,268.96 45.81,261.1 38.6,258.49 L 27.36,254.42 C 20.15,251.8 18.31,244.89 23.27,239.05 L 30.99,229.96 C 35.94,224.12 34.95,215.64 28.77,211.1 L 19.13,204.04 C 12.95,199.51 13.14,192.36 19.55,188.15 L 29.53,181.59 C 35.94,177.38 37.37,168.96 32.72,162.88 L 25.48,153.39 C 20.83,147.31 23.04,140.5 30.37,138.26 L 41.8,134.77 C 49.14,132.53 52.9,124.85 50.16,117.71 L 45.88,106.58 C 43.15,99.44 47.18,93.52 54.85,93.43 L 66.81,93.3 C 74.48,93.21 80.25,86.9 79.65,79.27 79.65,79.27 79.26,74.39 78.97,70.89 78.82,68.93 78.69,67.4 78.69,67.4 78.08,59.77 83.63,55.23 91.01,57.3 L 102.52,60.52 C 109.91,62.59 117.23,58.16 118.8,50.68 L 121.25,39.01 C 122.82,31.52 129.42,28.72 135.92,32.78 L 146.05,39.11 C 152.55,43.17 160.84,40.97 164.46,34.23 L 170.1,23.72 C 173.72,16.98 180.85,16.15 185.94,21.87 Z M 199,43.75 C 166.55,43.75 136.39,53.54 111.33,70.31 69.24,98.49 41.55,146.37 41.55,200.7 41.55,287.38 112.04,357.65 199,357.65 285.96,357.65 356.45,287.38 356.45,200.7 356.45,114.02 285.96,43.75 199,43.75 Z M 199,43.75" />
</svg>
