<?xml version="1.0" encoding="UTF-8"?>
<!DOCTYPE svg PUBLIC "-//W3C//DTD SVG 1.1//EN" "http://www.w3.org/Graphics/SVG/1.1/DTD/svg11.dtd">
<svg version="1.1" xmlns="http://www.w3.org/2000/svg" xmlns:xlink="http://www.w3.org/1999/xlink" width="400" height="400"  xml:space="preserve" id="body4">
    <!-- Generated by PaintCode - http://www.paintcodeapp.com -->
    <defs>
        <filter id="body4-spinnerBasicShadow-outer" filterUnits="userSpaceOnUse">
            <feGaussianBlur stdDeviation="4" />
            <feOffset dx="0" dy="-0" result="blur" />
            <feFlood flood-color="rgb(0, 0, 0)" flood-opacity="0.58" />
            <feComposite in2="blur" operator="in" result="colorShadow" />
            <feComposite in="SourceGraphic" in2="colorShadow" operator="over" />
        </filter>
    </defs>
    <path id="body4-bezier2" stroke="none" fill="rgb(115, 94, 175)" d="M 243.89,40.53 C 257.14,28.74 273.49,28.53 292.94,39.9 312.4,51.26 320.33,65.7 316.75,83.21 334.04,80.07 348.3,88.23 359.53,107.68 370.76,127.14 370.7,143.57 359.34,156.97 376.29,162.62 384.81,176.68 384.89,199.16 384.97,221.63 376.5,235.48 359.46,240.7 370.94,255.07 371.17,272.01 360.14,291.51 349.12,311 334.57,319.28 316.48,316.36 319.62,333.64 311.46,347.9 292,359.14 272.55,370.37 256.12,370.3 242.72,358.94 236.93,375.66 222.76,383.99 200.22,383.96 177.68,383.92 163.8,375.38 158.58,358.34 144.83,370.1 128.16,370.3 108.55,358.94 88.94,347.58 80.81,333.22 84.15,315.85 66.51,319.2 52.07,311.14 40.83,291.68 29.6,272.23 29.84,255.69 41.56,242.09 24.85,236.3 16.5,222.1 16.5,199.5 16.5,176.9 24.92,162.81 41.75,157.23 29.84,144.05 29.56,127.71 40.89,108.19 52.22,88.68 66.54,80.53 83.84,83.75 82.12,74.68 83.41,66.46 87.72,59.08 91.79,52.11 98.55,45.9 108,40.44 127.46,29.2 143.99,29.45 157.6,41.17 163.46,24.57 177.73,16.22 200.42,16.09 223.1,15.96 237.59,24.11 243.89,40.53 Z M 243.29,44.45 C 243.29,44.45 228.26,103.25 217.25,146.34 216.7,148.5 216.16,150.62 215.63,152.69 210.57,150.95 205.15,150 199.5,150 195.62,150 191.84,150.45 188.22,151.29 187.11,151.55 186,151.85 184.92,152.18 182.27,141.85 179.31,130.32 176.35,118.78 166.99,82.33 157.6,45.71 157.6,45.71 145,34.36 129.42,34.04 110.86,44.76 102.05,49.85 95.75,55.58 91.97,61.95 87.79,69.01 86.69,76.86 88.67,85.5 88.67,85.5 134.99,131.46 166.44,162.66 158.88,169.45 153.42,178.53 151.16,188.81 108.21,176.63 45.27,158.78 45.27,158.78 29.36,164.3 21.31,177.86 21.13,199.46 20.94,221.05 28.75,234.36 44.55,239.41 44.55,239.41 108.06,222.19 151.23,210.49 153.6,220.95 159.28,230.15 167.1,236.93 135.23,268.56 88.28,315.14 88.28,315.14 84.74,331.35 92.34,344.71 111.06,355.22 129.78,365.74 145.58,365.61 158.46,354.83 158.46,354.83 174.89,290.52 185.98,247.13 190.28,248.35 194.81,249 199.5,249 205.02,249 210.32,248.1 215.28,246.43 226.58,289.28 243.62,353.89 243.62,353.89 256.05,365.49 271.6,365.9 290.28,355.12 308.96,344.33 316.86,330.38 313.98,313.26 313.98,313.26 265.3,266.61 233.16,235.8 240.44,229.04 245.69,220.11 247.87,210.05 291,222.14 356.48,240.5 356.48,240.5 372.25,234.74 380.11,221.13 380.06,199.68 380,178.22 371.97,164.64 355.94,158.93 355.94,158.93 311.09,171.54 271.28,182.73 263.15,185.01 255.23,187.24 247.94,189.28 245.83,179.22 240.66,170.28 233.45,163.48 234.68,162.26 235.92,161.03 237.19,159.77 268.79,128.35 312.94,84.45 312.94,84.45 316.35,68.32 308.78,54.86 290.23,44.09 271.67,33.32 256.03,33.44 243.29,44.45 Z M 243.29,44.45" />
    <path id="body4-bezier" stroke="none" fill="rgb(61, 61, 61)" filter="url(#body4-spinnerBasicShadow-outer)" d="M 242.38,41.43 C 255.75,29.99 272.29,29.89 292,41.12 311.71,52.36 320.19,66.65 317.43,84.02 334.8,80.43 349.06,88.43 360.22,108 371.39,127.57 371.04,144.04 359.19,157.41 375.73,163.34 384,177.54 384,200 384,222.47 375.73,236.67 359.19,242.59 371.04,255.96 371.39,272.39 360.22,291.9 349.06,311.4 334.8,319.15 317.43,315.15 320.19,333.35 311.92,348.13 292.62,359.5 273.32,370.87 256.58,370.77 242.38,359.19 236.45,375.73 222.26,384 199.79,384 177.33,384 163.13,375.73 157.2,359.19 143.83,370.77 127.4,370.91 107.9,359.6 88.39,348.31 80.64,333.97 84.64,316.6 66.86,319.91 52.32,311.74 41.02,292.1 29.71,272.46 29.85,255.96 41.43,242.59 24.48,236.67 16,222.47 16,200 16,177.54 24.48,163.34 41.43,157.41 29.85,144.04 29.71,127.57 41.02,108 52.32,88.43 66.65,80.43 84.02,84.02 83.98,83.82 83.93,83.62 83.9,83.43 80.48,66.33 88.44,52.23 107.79,41.12 127.36,29.89 143.83,29.99 157.2,41.43 163.13,24.48 177.33,16 199.79,16 222.26,16 236.45,24.48 242.38,41.43 Z M 200.1,21.17 C 178.67,21.17 165.47,29.23 160.51,45.36 160.51,45.36 177.9,109.25 189.54,152 189.18,152.08 188.82,152.15 188.46,152.24 178.72,154.45 170.08,159.54 163.46,166.57 132.35,134.53 86.29,87.12 86.29,87.12 69.75,83.95 56,91.67 45.05,110.27 34.09,128.88 34.19,144.32 45.36,156.59 45.36,156.59 109.25,173.51 152.49,184.96 150.87,189.85 150,195.07 150,200.5 150,205.84 150.85,210.98 152.41,215.8 109,227.25 45.36,244.04 45.36,244.04 34.19,256.3 34.09,271.67 45.05,290.14 56,308.61 69.75,316.4 86.29,313.5 86.29,313.5 132.21,266.5 163.5,234.48 170.33,241.71 179.32,246.89 189.44,248.98 177.81,291.73 160.51,355.26 160.51,355.26 165.47,371.53 178.74,379.66 200.31,379.66 221.88,379.66 235.7,371.53 241.76,355.26 241.76,355.26 223.21,291.47 210.77,248.71 220.93,246.34 229.89,240.85 236.58,233.29 267.88,265.33 314.95,313.5 314.95,313.5 331.49,316.4 345.1,308.54 355.78,289.93 366.46,271.33 366.29,255.54 355.26,242.59 355.26,242.59 290.1,225.98 246.86,214.95 248.25,210.38 249,205.53 249,200.5 249,195.22 248.17,190.13 246.64,185.36 289.89,173.9 355.26,156.59 355.26,156.59 366.29,144.32 366.46,128.88 355.78,110.27 345.1,91.67 331.49,83.95 314.95,87.12 314.95,87.12 267.7,135.47 236.4,167.51 229.62,159.93 220.55,154.45 210.27,152.17 222.21,109.42 240.11,45.36 240.11,45.36 234.87,29.23 221.53,21.17 200.1,21.17 Z M 200.1,21.17" />
</svg>
