<?xml version="1.0" encoding="UTF-8"?>
<!DOCTYPE svg PUBLIC "-//W3C//DTD SVG 1.1//EN" "http://www.w3.org/Graphics/SVG/1.1/DTD/svg11.dtd">
<svg version="1.1" xmlns="http://www.w3.org/2000/svg" xmlns:xlink="http://www.w3.org/1999/xlink" width="400" height="400"  xml:space="preserve" id="body10">
    <!-- Generated by PaintCode - http://www.paintcodeapp.com -->
    <g id="body10-group4">
        <path id="body10-bezier" stroke="none" fill="rgb(115, 94, 175)" d="M 293.77,36.71 C 293.77,36.71 266.98,130.77 266.98,130.77 263.23,143.95 266.87,157.35 275.42,166.65 280.22,171.88 286.57,175.82 294.03,177.71 294.03,177.71 294.18,177.74 294.47,177.81 299.74,179.14 351.17,192.05 351.17,192.05 351.26,192.08 388.93,201.55 388.93,201.55 L 351.2,211.03 C 351.17,211.03 322.63,218.21 322.63,218.21 L 294.07,225.38 C 273.3,230.6 261.11,251.72 266.98,272.31 L 293.77,366.37 266.68,338.42 C 266.67,338.42 225.7,296.14 225.7,296.14 210.8,280.77 186.43,280.77 171.52,296.13 L 130.54,338.42 C 130.51,338.45 103.44,366.37 103.44,366.37 L 114.08,328.99 C 114.1,328.93 130.22,272.31 130.22,272.31 136.09,251.72 123.9,230.6 103.13,225.38 L 46.04,211.03 8.28,201.55 45.98,192.07 C 46.04,192.05 74.58,184.89 74.58,184.89 L 103.16,177.71 C 123.91,172.47 136.09,151.36 130.22,130.77 L 114.1,74.16 C 114.08,74.1 113.84,73.23 113.41,71.74 111.08,63.53 103.44,36.71 103.44,36.71 L 151.02,85.81 C 151.02,85.81 163.35,98.53 168.88,104.24 170.47,105.89 171.5,106.95 171.5,106.95 177.35,112.98 184.66,116.65 192.28,117.95 204.07,119.96 216.62,116.3 225.68,106.97 L 266.67,64.67 C 266.72,64.62 293.77,36.71 293.77,36.71 L 293.77,36.71 Z M 199.5,152 C 195.49,152 191.59,152.48 187.86,153.38 166.14,158.61 150,178.17 150,201.5 150,228.84 172.16,251 199.5,251 226.84,251 249,228.84 249,201.5 249,174.16 226.84,152 199.5,152 Z M 199.5,152" />
        <path id="body10-bezier2" stroke="none" fill="rgb(84, 68, 128)" d="M 199.55,10.15 C 199.55,10.15 232.84,142.89 232.84,142.89 L 364.44,105.35 266.13,200.55 364.44,295.75 232.84,258.21 199.55,390.95 166.26,258.21 34.66,295.75 132.97,200.55 34.66,105.35 166.26,142.89 C 166.26,142.89 178,96.09 187.53,58.06 194.06,32.05 199.55,10.15 199.55,10.15 L 199.55,10.15 Z M 199.5,152 C 195.49,152 191.59,152.48 187.86,153.38 166.14,158.61 150,178.17 150,201.5 150,228.84 172.16,251 199.5,251 226.84,251 249,228.84 249,201.5 249,174.16 226.84,152 199.5,152 Z M 199.5,152" />
    </g>
</svg>
