<?xml version="1.0" encoding="UTF-8"?>
<!DOCTYPE svg PUBLIC "-//W3C//DTD SVG 1.1//EN" "http://www.w3.org/Graphics/SVG/1.1/DTD/svg11.dtd">
<svg version="1.1" xmlns="http://www.w3.org/2000/svg" xmlns:xlink="http://www.w3.org/1999/xlink" width="400" height="400"  xml:space="preserve" id="body9">
    <!-- Generated by PaintCode - http://www.paintcodeapp.com -->
    <defs>
        <filter id="body9-spinnerBasicShadow-outer" filterUnits="userSpaceOnUse">
            <feGaussianBlur stdDeviation="4" />
            <feOffset dx="0" dy="-0" result="blur" />
            <feFlood flood-color="rgb(0, 0, 0)" flood-opacity="0.58" />
            <feComposite in2="blur" operator="in" result="colorShadow" />
            <feComposite in="SourceGraphic" in2="colorShadow" operator="over" />
        </filter>
    </defs>
    <g id="body9-group">
    </g>
    <g id="body9-group2">
        <path id="body9-bezier2" stroke="none" fill="rgb(84, 68, 128)" d="M 199.5,150 C 195.07,150 190.78,150.58 186.69,151.67 165.56,157.32 150,176.59 150,199.5 150,226.84 172.16,249 199.5,249 226.84,249 249,226.84 249,199.5 249,172.16 226.84,150 199.5,150 Z M 199.7,25.65 C 199.7,25.65 251.13,128.07 251.13,128.07 L 366.13,144.5 282.92,224.23 302.56,336.8 199.7,283.65 96.84,336.8 116.48,224.23 33.27,144.5 148.27,128.07 C 148.27,128.07 160.91,102.89 173.66,77.5 186.63,51.68 199.7,25.65 199.7,25.65 L 199.7,25.65 Z M 199.7,25.65" />
        <path id="body9-bezier" stroke="none" fill="rgb(115, 94, 175)" filter="url(#body9-spinnerBasicShadow-outer)" d="M 302.55,64.14 C 302.55,64.14 296.64,98.04 296.64,98.04 296.64,98.06 288.83,142.81 288.83,142.81 285.58,161.46 294.2,187.51 307.98,200.72 L 366.1,256.42 308.62,264.63 285.78,267.9 C 266.73,270.62 244.17,286.72 235.65,303.7 L 199.73,375.25 163.8,303.7 C 155.29,286.73 132.75,270.63 113.7,267.9 L 67.99,261.37 C 67.97,261.36 33.36,256.42 33.36,256.42 L 58.41,232.41 C 58.42,232.4 91.49,200.71 91.49,200.71 105.27,187.49 113.88,161.44 110.62,142.79 110.62,142.79 101.44,90.12 98.1,70.98 97.36,66.73 96.9,64.14 96.9,64.14 L 127.88,80.15 C 127.88,80.15 168.76,101.28 168.76,101.28 185.79,110.08 213.66,110.08 230.7,101.28 L 251.14,90.71 271.57,80.15 C 271.59,80.15 302.55,64.14 302.55,64.14 L 302.55,64.14 Z M 199.5,151 C 195.17,151 190.96,151.56 186.96,152.6 165.69,158.15 150,177.49 150,200.5 150,227.84 172.16,250 199.5,250 226.84,250 249,227.84 249,200.5 249,173.16 226.84,151 199.5,151 Z M 199.5,151" />
    </g>
</svg>
