<?xml version="1.0" encoding="UTF-8"?>
<!DOCTYPE svg PUBLIC "-//W3C//DTD SVG 1.1//EN" "http://www.w3.org/Graphics/SVG/1.1/DTD/svg11.dtd">
<svg version="1.1" xmlns="http://www.w3.org/2000/svg" xmlns:xlink="http://www.w3.org/1999/xlink" width="400" height="400"  xml:space="preserve" id="body11">
    <!-- Generated by PaintCode - http://www.paintcodeapp.com -->
    <g id="body11-group">
    </g>
    <path id="body11-bezier3" stroke="none" fill="rgb(115, 94, 175)" d="M 197.5,33 C 181.09,33 166.55,40.98 157.55,53.27 151.54,61.46 148,71.57 148,82.5 148,109.84 170.16,132 197.5,132 224.84,132 247,109.84 247,82.5 247,55.16 224.84,33 197.5,33 Z M 197.5,150 C 170.16,150 148,172.16 148,199.5 148,226.84 170.16,249 197.5,249 224.84,249 247,226.84 247,199.5 247,172.16 224.84,150 197.5,150 Z M 197.5,268 C 170.16,268 148,290.16 148,317.5 148,344.84 170.16,367 197.5,367 224.84,367 247,344.84 247,317.5 247,290.16 224.84,268 197.5,268 Z M 257,38.61 C 257,107.34 257,290.45 257,362.39 244.64,380.62 223.85,392 201.12,392 L 193.87,392 C 171.75,392 151.47,381.21 139,363.82 139,294.65 139,107.48 139,37.18 142.2,32.72 145.91,28.69 150.03,25.17 161.99,14.96 177.42,9 193.87,9 L 201.13,9 C 223.85,9 244.64,20.38 257,38.61 Z M 257,38.61" />
</svg>
