<?xml version="1.0" encoding="UTF-8"?>
<!DOCTYPE svg PUBLIC "-//W3C//DTD SVG 1.1//EN" "http://www.w3.org/Graphics/SVG/1.1/DTD/svg11.dtd">
<svg version="1.1" xmlns="http://www.w3.org/2000/svg" xmlns:xlink="http://www.w3.org/1999/xlink" width="400" height="400"  xml:space="preserve" id="body5">
    <!-- Generated by PaintCode - http://www.paintcodeapp.com -->
    <defs>
        <filter id="body5-spinnerBasicShadow-outer" filterUnits="userSpaceOnUse">
            <feGaussianBlur stdDeviation="4" />
            <feOffset dx="0" dy="-0" result="blur" />
            <feFlood flood-color="rgb(0, 0, 0)" flood-opacity="0.58" />
            <feComposite in2="blur" operator="in" result="colorShadow" />
            <feComposite in="SourceGraphic" in2="colorShadow" operator="over" />
        </filter>
    </defs>
    <g id="body5-group">
        <path id="body5-bezier2" stroke="none" fill="rgb(84, 68, 128)" d="M 199.5,151 C 196.26,151 193.09,151.31 190.02,151.91 167.22,156.33 150,176.4 150,200.5 150,227.84 172.16,250 199.5,250 226.84,250 249,227.84 249,200.5 249,173.16 226.84,151 199.5,151 Z M 76.23,77.25 C 76.22,77.25 199.47,137.26 199.47,137.26 L 322.73,77.25 262.71,200.5 322.73,323.75 199.48,263.74 76.23,323.75 136.24,200.5 76.22,77.25 76.23,77.25 Z M 76.23,77.25" />
        <path id="body5-bezier" stroke="none" fill="rgb(115, 94, 175)" filter="url(#body5-spinnerBasicShadow-outer)" d="M 199.5,150 C 196.19,150 192.96,150.32 189.83,150.94 167.12,155.44 150,175.47 150,199.5 150,226.84 172.16,249 199.5,249 226.84,249 249,226.84 249,199.5 249,172.16 226.84,150 199.5,150 Z M 199.62,26.57 C 199.62,26.57 233.92,125.7 233.92,125.7 236.56,133.34 241.86,141.33 248.43,148.29 256.2,156.53 265.76,163.34 274.82,166.46 274.82,166.46 275.79,166.79 277.39,167.34 285.4,170.09 309.35,178.31 309.35,178.31 L 374.3,200.62 343.9,211.07 C 343.88,211.07 309.35,222.94 309.35,222.94 L 274.81,234.8 C 258.08,240.56 239.69,258.89 233.92,275.56 L 199.62,374.68 165.33,275.56 C 159.56,258.89 141.17,240.56 124.44,234.8 L 89.89,222.94 55.36,211.07 C 55.34,211.07 24.94,200.62 24.94,200.62 L 55.32,190.19 C 55.36,190.17 124.42,166.45 124.42,166.45 141.15,160.71 159.56,142.37 165.33,125.69 165.33,125.69 169.21,114.47 174.36,99.58 184.52,70.22 199.62,26.57 199.62,26.57 L 199.62,26.57 Z M 199.62,26.57" />
    </g>
</svg>
