<?xml version="1.0" encoding="UTF-8"?>
<!DOCTYPE svg PUBLIC "-//W3C//DTD SVG 1.1//EN" "http://www.w3.org/Graphics/SVG/1.1/DTD/svg11.dtd">
<svg version="1.1" xmlns="http://www.w3.org/2000/svg" xmlns:xlink="http://www.w3.org/1999/xlink" width="400" height="400"  xml:space="preserve" id="body3">
    <!-- Generated by PaintCode - http://www.paintcodeapp.com -->
    <defs>
        <filter id="body3-spinnerBasicShadow-outer" filterUnits="userSpaceOnUse">
            <feGaussianBlur stdDeviation="4" />
            <feOffset dx="0" dy="-0" result="blur" />
            <feFlood flood-color="rgb(0, 0, 0)" flood-opacity="0.58" />
            <feComposite in2="blur" operator="in" result="colorShadow" />
            <feComposite in="SourceGraphic" in2="colorShadow" operator="over" />
        </filter>
    </defs>
    <circle id="body3-oval" stroke="none" fill="rgb(61, 61, 61)" cx="200" cy="200" r="110" />
    <path id="body3-bezier11" stroke="none" fill="rgb(115, 94, 175)" filter="url(#body3-spinnerBasicShadow-outer)" d="M 299.56,265.65 L 373.8,280.79 284.42,240.34 299.56,265.65 Z M 299.56,134.35 L 284.42,159.66 373.8,118.59 299.56,134.35 Z M 281.31,202.39 L 385,202.39 304.33,218.98 281.31,202.39 Z M 281.31,197.61 L 304.33,180.19 385,197.61 281.31,197.61 Z M 273.43,377.24 L 234.65,275.19 259.95,292.61 273.43,377.24 Z M 273.43,21.93 L 259.95,107.39 234.65,124.81 273.43,21.93 Z M 373.8,276.02 L 282.97,233.29 275.09,221.47 215.57,202.39 272.6,202.39 373.8,276.02 Z M 373.8,123.98 L 272.6,197.61 215.57,197.61 275.09,177.08 282.97,166.71 373.8,123.98 Z M 338.34,339.28 L 214.95,206.33 268.66,225.41 338.34,339.28 Z M 338.34,60.72 L 268.66,174.59 214.95,192.02 338.34,60.72 Z M 332.74,340.94 L 232.37,268.14 207.69,209.44 332.74,340.94 Z M 332.74,59.06 L 207.69,190.56 232.37,131.86 332.74,59.06 Z M 219.72,310.03 L 201.47,282.24 201.47,393 219.72,310.03 Z M 269.49,381.18 L 201.47,275.19 201.47,204.04 269.49,381.18 Z M 269.49,17.99 L 201.47,195.96 201.47,124.81 269.49,17.99 Z M 219.72,89.14 L 201.47,116.93 201.47,7 219.72,89.14 Z M 178.45,310.03 L 195.87,393 195.87,282.24 178.45,310.03 Z M 178.45,89.14 L 195.87,7 195.87,116.93 178.45,89.14 Z M 128.68,381.18 L 195.87,204.04 195.87,275.19 128.68,381.18 Z M 128.68,17.99 L 195.87,124.81 195.87,195.96 128.68,17.99 Z M 124.74,377.24 L 137.39,292.61 162.69,275.19 124.74,377.24 Z M 124.74,21.93 L 162.69,124.81 137.39,107.39 124.74,21.93 Z M 64.6,340.94 L 188.82,209.44 164.14,268.14 64.6,340.94 Z M 64.6,59.06 L 164.14,131.86 188.82,190.56 64.6,59.06 Z M 59,339.28 L 128.68,225.41 184.05,206.33 59,339.28 Z M 59,60.72 L 184.05,192.02 128.68,174.59 59,60.72 Z M 96.95,265.65 L 24.16,280.79 114.37,240.34 96.95,265.65 Z M 24.16,276.02 L 126.19,202.39 180.94,202.39 123.08,221.47 115.2,233.29 24.16,276.02 Z M 24.16,123.98 L 115.2,166.71 123.08,177.08 180.94,197.61 126.19,197.61 24.16,123.98 Z M 96.95,134.35 L 24.16,118.59 114.37,159.66 96.95,134.35 Z M 116.86,202.39 L 93.84,218.98 14,202.39 116.86,202.39 Z M 116.86,197.61 L 14,197.61 93.84,180.19 116.86,197.61 Z M 116.86,197.61" />
    <circle id="body3-oval2" stroke="none" fill="rgb(255, 255, 255)" cx="199.5" cy="199.5" r="49.5" />
</svg>
