<?xml version="1.0" encoding="UTF-8"?>
<!DOCTYPE svg PUBLIC "-//W3C//DTD SVG 1.1//EN" "http://www.w3.org/Graphics/SVG/1.1/DTD/svg11.dtd">
<svg version="1.1" xmlns="http://www.w3.org/2000/svg" xmlns:xlink="http://www.w3.org/1999/xlink" width="400" height="400"  xml:space="preserve" id="body8">
    <!-- Generated by PaintCode - http://www.paintcodeapp.com -->
    <defs>
        <filter id="body8-spinnerBasicShadow-outer" filterUnits="userSpaceOnUse">
            <feGaussianBlur stdDeviation="4" />
            <feOffset dx="0" dy="-0" result="blur" />
            <feFlood flood-color="rgb(0, 0, 0)" flood-opacity="0.58" />
            <feComposite in2="blur" operator="in" result="colorShadow" />
            <feComposite in="SourceGraphic" in2="colorShadow" operator="over" />
        </filter>
    </defs>
    <g id="body8-group">
        <path id="body8-bezier" stroke="none" fill="rgb(115, 94, 175)" d="M 270.39,270.46 C 250.66,289.75 227.11,299.4 199.73,299.4 172.27,299.4 148.9,289.75 129.61,270.46 110.33,251.09 100.68,227.71 100.68,200.32 100.68,172.94 110.33,149.34 129.61,129.54 148.9,110.25 172.27,100.6 199.73,100.6 227.54,100.6 251.1,110.25 270.39,129.54 289.75,149.34 299.43,172.94 299.43,200.32 299.43,227.71 289.75,251.09 270.39,270.46 Z M 382.22,170.73 C 376.44,164.88 369.25,161.95 360.66,161.95 L 340.5,161.95 C 336.89,149.38 332.15,138.14 326.3,128.24 L 340.5,113.39 C 346.78,107.53 349.93,100.34 349.93,91.82 349.93,83.72 346.78,76.53 340.5,70.25 L 329.66,59.51 C 323.88,53.66 316.69,50.73 308.1,50.73 300.08,50.73 292.93,53.66 286.64,59.51 L 272.44,74.36 C 259.87,67.14 248.42,62.4 238.09,60.16 L 238.09,39.24 C 238.09,30.72 235.16,23.53 229.31,17.67 223.46,11.89 216.27,9 207.75,9 L 192.25,9 C 183.73,9 176.54,11.89 170.69,17.67 164.83,23.53 161.91,30.72 161.91,39.24 L 161.91,60.16 C 151.14,62.4 139.95,67.14 128.31,74.36 L 113.47,59.51 C 107.62,53.66 100.43,50.73 91.9,50.73 83.81,50.73 76.62,53.66 70.34,59.51 L 59.5,70.25 C 53.72,76.53 50.83,83.72 50.83,91.82 50.83,100.34 53.72,107.53 59.5,113.39 L 74.35,128.24 C 68.49,138.14 63.8,149.38 60.26,161.95 L 39.34,161.95 C 30.82,161.95 23.63,164.88 17.78,170.73 11.93,176.51 9,183.67 9,192.2 L 9,207.7 C 9,216.3 11.93,223.49 17.78,229.27 23.63,235.12 30.82,238.05 39.34,238.05 L 60.26,238.05 C 63.8,250.62 68.49,261.86 74.35,271.76 L 59.5,286.61 C 53.72,292.9 50.83,300.31 50.83,308.83 50.83,317.36 53.72,324.55 59.5,330.41 L 70.34,341.14 C 76.62,346.99 83.81,349.92 91.9,349.92 100.43,349.92 107.62,346.99 113.47,341.14 L 128.31,325.63 C 139.51,331.92 150.71,336.66 161.91,339.84 L 161.91,360.76 C 161.91,369.28 164.83,376.47 170.69,382.33 176.54,388.11 183.73,391 192.25,391 L 207.75,391 C 216.27,391 223.46,388.11 229.31,382.33 235.16,376.47 238.09,369.28 238.09,360.76 L 238.09,339.84 C 250.66,336.22 261.9,331.49 271.79,325.63 L 286.64,341.14 C 292.93,346.99 300.08,349.92 308.1,349.92 316.69,349.92 323.88,346.99 329.66,341.14 L 340.5,330.41 C 346.78,324.55 349.93,317.36 349.93,308.83 349.93,300.31 346.78,292.9 340.5,286.61 L 326.3,272.41 C 332.59,261.64 337.32,250.19 340.5,238.05 L 360.66,238.05 C 369.25,238.05 376.44,235.12 382.22,229.27 388.07,223.49 391,216.3 391,207.7 L 391,192.2 C 391,183.67 388.07,176.51 382.22,170.73 Z M 382.22,170.73" />
        <path id="body8-bezier111" stroke="none" fill="rgb(61, 61, 61)" filter="url(#body8-spinnerBasicShadow-outer)" d="M 255.33,256.39 C 239.69,271.69 221,279.35 199.28,279.35 177.51,279.35 158.97,271.69 143.67,256.39 128.37,241.03 120.72,222.48 120.72,200.76 120.72,179.03 128.37,160.32 143.67,144.61 158.97,129.31 177.51,121.65 199.28,121.65 221.35,121.65 240.03,129.31 255.33,144.61 270.69,160.32 278.37,179.03 278.37,200.76 278.37,222.48 270.69,241.03 255.33,256.39 Z M 344.04,177.28 C 339.45,172.64 333.75,170.32 326.93,170.32 L 310.94,170.32 C 308.08,160.35 304.32,151.43 299.68,143.58 L 310.94,131.8 C 315.93,127.16 318.42,121.45 318.42,114.69 318.42,108.27 315.93,102.57 310.94,97.58 L 302.35,89.07 C 297.76,84.42 292.06,82.1 285.24,82.1 278.88,82.1 273.21,84.42 268.22,89.07 L 256.96,100.85 C 246.99,95.12 237.91,91.36 229.71,89.58 L 229.71,72.99 C 229.71,66.22 227.39,60.52 222.75,55.88 218.11,51.29 212.41,49 205.65,49 L 193.35,49 C 186.59,49 180.89,51.29 176.25,55.88 171.61,60.52 169.29,66.22 169.29,72.99 L 169.29,89.58 C 160.75,91.36 151.87,95.12 142.64,100.85 L 130.86,89.07 C 126.22,84.42 120.52,82.1 113.76,82.1 107.34,82.1 101.64,84.42 96.65,89.07 L 88.06,97.58 C 83.47,102.57 81.18,108.27 81.18,114.69 81.18,121.45 83.47,127.16 88.06,131.8 L 99.83,143.58 C 95.19,151.43 91.46,160.35 88.66,170.32 L 72.07,170.32 C 65.31,170.32 59.6,172.64 54.96,177.28 50.32,181.87 48,187.54 48,194.31 L 48,206.6 C 48,213.43 50.32,219.13 54.96,223.71 59.6,228.36 65.31,230.68 72.07,230.68 L 88.66,230.68 C 91.46,240.65 95.19,249.57 99.83,257.42 L 88.06,269.2 C 83.47,274.19 81.18,280.06 81.18,286.83 81.18,293.59 83.47,299.29 88.06,303.94 L 96.65,312.45 C 101.64,317.09 107.34,319.41 113.76,319.41 120.52,319.41 126.22,317.09 130.86,312.45 L 142.64,300.15 C 151.52,305.14 160.4,308.89 169.29,311.42 L 169.29,328.01 C 169.29,334.78 171.61,340.48 176.25,345.12 180.89,349.71 186.59,352 193.35,352 L 205.65,352 C 212.41,352 218.11,349.71 222.75,345.12 227.39,340.48 229.71,334.78 229.71,328.01 L 229.71,311.42 C 239.69,308.55 248.6,304.8 256.45,300.15 L 268.22,312.45 C 273.21,317.09 278.88,319.41 285.24,319.41 292.06,319.41 297.76,317.09 302.35,312.45 L 310.94,303.94 C 315.93,299.29 318.42,293.59 318.42,286.83 318.42,280.06 315.93,274.19 310.94,269.2 L 299.68,257.94 C 304.67,249.39 308.42,240.31 310.94,230.68 L 326.93,230.68 C 333.75,230.68 339.45,228.36 344.04,223.71 348.68,219.13 351,213.43 351,206.6 L 351,194.31 C 351,187.54 348.68,181.87 344.04,177.28 Z M 344.04,177.28" />
        <path id="body8-bezier2" stroke="none" fill="rgb(115, 94, 175)" filter="url(#body8-spinnerBasicShadow-outer)" d="M 232.48,232.52 C 223.24,241.56 212.2,246.08 199.37,246.08 186.51,246.08 175.56,241.56 166.52,232.52 157.48,223.44 152.96,212.49 152.96,199.65 152.96,186.82 157.48,175.76 166.52,166.48 175.56,157.44 186.51,152.92 199.37,152.92 212.41,152.92 223.44,157.44 232.48,166.48 241.55,175.76 246.09,186.82 246.09,199.65 246.09,212.49 241.55,223.44 232.48,232.52 Z M 284.89,185.79 C 282.18,183.04 278.81,181.67 274.78,181.67 L 265.34,181.67 C 263.64,175.78 261.43,170.51 258.68,165.87 L 265.34,158.91 C 268.28,156.17 269.75,152.8 269.75,148.81 269.75,145.01 268.28,141.65 265.34,138.7 L 260.26,133.67 C 257.55,130.93 254.18,129.56 250.15,129.56 246.4,129.56 243.04,130.93 240.1,133.67 L 233.45,140.63 C 227.56,137.24 222.19,135.02 217.35,133.97 L 217.35,124.17 C 217.35,120.18 215.98,116.81 213.24,114.06 210.49,111.35 207.12,110 203.13,110 L 195.87,110 C 191.87,110 188.51,111.35 185.76,114.06 183.02,116.81 181.65,120.18 181.65,124.17 L 181.65,133.97 C 176.61,135.02 171.36,137.24 165.91,140.63 L 158.95,133.67 C 156.21,130.93 152.84,129.56 148.85,129.56 145.06,129.56 141.69,130.93 138.74,133.67 L 133.66,138.7 C 130.95,141.65 129.6,145.01 129.6,148.81 129.6,152.8 130.95,156.17 133.66,158.91 L 140.62,165.87 C 137.88,170.51 135.68,175.78 134.02,181.67 L 124.22,181.67 C 120.22,181.67 116.85,183.04 114.11,185.79 111.37,188.49 110,191.85 110,195.84 L 110,203.11 C 110,207.14 111.37,210.51 114.11,213.21 116.85,215.96 120.22,217.33 124.22,217.33 L 134.02,217.33 C 135.68,223.22 137.88,228.49 140.62,233.13 L 133.66,240.08 C 130.95,243.03 129.6,246.5 129.6,250.5 129.6,254.49 130.95,257.86 133.66,260.61 L 138.74,265.63 C 141.69,268.38 145.06,269.75 148.85,269.75 152.84,269.75 156.21,268.38 158.95,265.63 L 165.91,258.37 C 171.16,261.32 176.4,263.54 181.65,265.03 L 181.65,274.83 C 181.65,278.82 183.02,282.19 185.76,284.94 188.51,287.65 191.87,289 195.87,289 L 203.13,289 C 207.12,289 210.49,287.65 213.24,284.94 215.98,282.19 217.35,278.82 217.35,274.83 L 217.35,265.03 C 223.24,263.33 228.5,261.11 233.14,258.37 L 240.1,265.63 C 243.04,268.38 246.4,269.75 250.15,269.75 254.18,269.75 257.55,268.38 260.26,265.63 L 265.34,260.61 C 268.28,257.86 269.75,254.49 269.75,250.5 269.75,246.5 268.28,243.03 265.34,240.08 L 258.68,233.43 C 261.63,228.38 263.85,223.02 265.34,217.33 L 274.78,217.33 C 278.81,217.33 282.18,215.96 284.89,213.21 287.63,210.51 289,207.14 289,203.11 L 289,195.84 C 289,191.85 287.63,188.49 284.89,185.79 Z M 284.89,185.79" />
        <path stroke="rgb(115, 94, 175)" stroke-width="35" stroke-miterlimit="10" fill="none" d="M 232.48,232.52 C 223.24,241.56 212.2,246.08 199.37,246.08 186.51,246.08 175.56,241.56 166.52,232.52 157.48,223.44 152.96,212.49 152.96,199.65 152.96,186.82 157.48,175.76 166.52,166.48 175.56,157.44 186.51,152.92 199.37,152.92 212.41,152.92 223.44,157.44 232.48,166.48 241.55,175.76 246.09,186.82 246.09,199.65 246.09,212.49 241.55,223.44 232.48,232.52 Z M 284.89,185.79 C 282.18,183.04 278.81,181.67 274.78,181.67 L 265.34,181.67 C 263.64,175.78 261.43,170.51 258.68,165.87 L 265.34,158.91 C 268.28,156.17 269.75,152.8 269.75,148.81 269.75,145.01 268.28,141.65 265.34,138.7 L 260.26,133.67 C 257.55,130.93 254.18,129.56 250.15,129.56 246.4,129.56 243.04,130.93 240.1,133.67 L 233.45,140.63 C 227.56,137.24 222.19,135.02 217.35,133.97 L 217.35,124.17 C 217.35,120.18 215.98,116.81 213.24,114.06 210.49,111.35 207.12,110 203.13,110 L 195.87,110 C 191.87,110 188.51,111.35 185.76,114.06 183.02,116.81 181.65,120.18 181.65,124.17 L 181.65,133.97 C 176.61,135.02 171.36,137.24 165.91,140.63 L 158.95,133.67 C 156.21,130.93 152.84,129.56 148.85,129.56 145.06,129.56 141.69,130.93 138.74,133.67 L 133.66,138.7 C 130.95,141.65 129.6,145.01 129.6,148.81 129.6,152.8 130.95,156.17 133.66,158.91 L 140.62,165.87 C 137.88,170.51 135.68,175.78 134.02,181.67 L 124.22,181.67 C 120.22,181.67 116.85,183.04 114.11,185.79 111.37,188.49 110,191.85 110,195.84 L 110,203.11 C 110,207.14 111.37,210.51 114.11,213.21 116.85,215.96 120.22,217.33 124.22,217.33 L 134.02,217.33 C 135.68,223.22 137.88,228.49 140.62,233.13 L 133.66,240.08 C 130.95,243.03 129.6,246.5 129.6,250.5 129.6,254.49 130.95,257.86 133.66,260.61 L 138.74,265.63 C 141.69,268.38 145.06,269.75 148.85,269.75 152.84,269.75 156.21,268.38 158.95,265.63 L 165.91,258.37 C 171.16,261.32 176.4,263.54 181.65,265.03 L 181.65,274.83 C 181.65,278.82 183.02,282.19 185.76,284.94 188.51,287.65 191.87,289 195.87,289 L 203.13,289 C 207.12,289 210.49,287.65 213.24,284.94 215.98,282.19 217.35,278.82 217.35,274.83 L 217.35,265.03 C 223.24,263.33 228.5,261.11 233.14,258.37 L 240.1,265.63 C 243.04,268.38 246.4,269.75 250.15,269.75 254.18,269.75 257.55,268.38 260.26,265.63 L 265.34,260.61 C 268.28,257.86 269.75,254.49 269.75,250.5 269.75,246.5 268.28,243.03 265.34,240.08 L 258.68,233.43 C 261.63,228.38 263.85,223.02 265.34,217.33 L 274.78,217.33 C 278.81,217.33 282.18,215.96 284.89,213.21 287.63,210.51 289,207.14 289,203.11 L 289,195.84 C 289,191.85 287.63,188.49 284.89,185.79 Z M 284.89,185.79" />
    </g>
</svg>
